<?xml version="1.0" encoding="UTF-8"?>
<svg width="271px" height="159px" viewBox="0 0 271 159" version="1.1" xmlns="http://www.w3.org/2000/svg" xmlns:xlink="http://www.w3.org/1999/xlink">
    <!-- Generator: Sketch 3.6 (26304) - http://www.bohemiancoding.com/sketch -->
    <title>Page 1</title>
    <desc>Created with Sketch.</desc>
    <defs>
        <path id="path-1" d="M0,158.832323 L270.841302,158.832323 L270.841302,0 L0,0 L0,158.832323 Z"></path>
        <path id="path-3" d="M0.292837091,32.6690095 L14.9087716,32.6690095 L14.9087716,0.0866383132 L0.292837091,0.0866383132 L0.292837091,32.6690095 L0.292837091,32.6690095 Z"></path>
        <path id="path-5" d="M14.61564,32.6690095 L0,32.6690095 L0,0.0866383132 L14.61564,0.0866383132 L14.61564,32.6690095 L14.61564,32.6690095 Z"></path>
        <path id="path-7" d="M0.292837091,32.6690095 L14.9087716,32.6690095 L14.9087716,0.0866383132 L0.292837091,0.0866383132 L0.292837091,32.6690095 L0.292837091,32.6690095 Z"></path>
        <path id="path-9" d="M14.61564,32.6690095 L0,32.6690095 L0,0.0866383132 L14.61564,0.0866383132 L14.61564,32.6690095 L14.61564,32.6690095 Z"></path>
        <path id="path-11" d="M0.292837091,32.6690095 L14.9087716,32.6690095 L14.9087716,0.0866383132 L0.292837091,0.0866383132 L0.292837091,32.6690095 L0.292837091,32.6690095 Z"></path>
        <path id="path-13" d="M14.61564,32.6690095 L0,32.6690095 L0,0.0866383132 L14.61564,0.0866383132 L14.61564,32.6690095 L14.61564,32.6690095 Z"></path>
    </defs>
    <g id="Page-1" stroke="none" stroke-width="1" fill="none" fill-rule="evenodd">
        <g id="Punto-de-Venta---Home" transform="translate(-1069.000000, -352.000000)">
            <g id="Page-1" transform="translate(1069.000000, 352.000000)">
                <path d="M6.51067744,102.086655 C6.51067744,102.086655 7.04573984,100.446113 6.43566464,98.9348542 C6.21474544,98.3871393 5.37442864,97.6287982 4.80489504,97.85873 C4.23687904,98.0873603 4.05801904,98.9699947 4.37888304,99.7654285 C4.98809104,101.277122 6.51067744,102.086655 6.51067744,102.086655 L6.51067744,102.086655 Z" id="Fill-1" fill="#FFAB01"></path>
                <path d="M7.34219216,104.67675 C7.34219216,104.67675 6.60572256,103.359631 5.28541056,102.88198 C4.80606576,102.709315 3.82916496,102.826016 3.64445136,103.339675 C3.45865376,103.852249 3.91696896,104.489334 4.61333056,104.740523 C5.93472656,105.218608 7.34219216,104.67675 7.34219216,104.67675" id="Fill-3" fill="#FFAB01"></path>
                <path d="M8.880128,107.454087 C8.880128,107.454087 7.671468,106.552147 6.2707232,106.6554 C5.7627608,106.69336 4.919192,107.19921 4.9597336,107.743454 C4.9996248,108.287265 5.6777752,108.681185 6.4159792,108.626739 C7.8169408,108.523921 8.880128,107.454087 8.880128,107.454087" id="Fill-5" fill="#FFAB01"></path>
                <path d="M7.40961696,104.731174 C7.40961696,104.731174 8.70066096,104.196908 9.44905456,103.00777 C9.71983776,102.57654 9.88265456,101.639242 9.50542256,101.402369 C9.12797376,101.164629 8.47670656,101.519287 8.08256416,102.146177 C7.33352016,103.335749 7.40961696,104.731174 7.40961696,104.731174" id="Fill-7" fill="#FFAB01"></path>
                <path d="M8.70122464,107.548142 C8.70122464,107.548142 10.031943,107.039689 10.7794694,105.850118 C11.0511198,105.419538 11.196159,104.470744 10.7968134,104.219337 C10.3970342,103.967931 9.72885664,104.312395 9.33406384,104.939284 C8.58588704,106.128422 8.70122464,107.548142 8.70122464,107.548142" id="Fill-9" fill="#FFAB01"></path>
                <path d="M11.1607556,111.042108 C11.1607556,111.042108 12.3479524,110.761851 12.91857,109.853621 C13.1264812,109.524775 13.159218,108.752117 12.7605228,108.500928 C12.3609604,108.249304 11.7740828,108.463618 11.4727308,108.941702 C10.9014628,109.851018 11.1607556,111.042108 11.1607556,111.042108" id="Fill-11" fill="#FFAB01"></path>
                <path d="M11.0109685,111.125143 C11.0109685,111.125143 10.1424677,110.348798 9.00448448,110.262899 C8.59278128,110.232097 7.85804608,110.494349 7.82877808,110.885017 C7.79929328,111.273948 8.29880048,111.630126 8.89868608,111.675027 C10.0355853,111.76136 11.0109685,111.125143 11.0109685,111.125143" id="Fill-13" fill="#FFAB01"></path>
                <path d="M17.7888302,126.970654 C17.5297542,127.219674 17.2975614,127.298849 17.2804342,127.304489 L17.1911126,127.032475 L17.236207,127.167614 L17.190679,127.032475 C17.2171286,127.023582 17.825903,126.807532 18.1075262,125.879779 C18.4229702,124.83988 18.2055198,123.365063 17.4601614,121.495674 C16.4377326,118.931501 14.4377526,115.695537 11.514855,111.877584 C8.11955024,107.442938 7.17777104,104.549702 6.55295344,102.634543 C6.39295504,102.144311 6.25528704,101.720456 6.10526144,101.373606 L6.36737264,101.260376 C6.52281824,101.619373 6.66287104,102.048651 6.82482064,102.546258 C7.44248384,104.442545 8.37667504,107.307798 11.741411,111.704051 C18.2477958,120.203067 18.9404718,124.158328 18.375491,125.979778 C18.228067,126.45591 17.9989094,126.768921 17.7888302,126.970654" id="Fill-15" fill="#FFAB01"></path>
                <path d="M99.3363291,129.270536 C105.885207,125.727417 100.899024,124.179716 94.8932299,123.966704 C97.9013299,121.331598 96.1948971,118.623392 89.1289515,115.384608 C85.9573843,113.930615 82.0105403,114.524316 78.1038043,116.088069 C75.3218267,110.569489 71.4445755,106.715529 66.7454355,108.532641 C62.8599459,110.03544 59.9522243,111.925002 58.1081235,113.991135 C56.9384875,113.495914 55.6767115,113.023469 54.3238795,112.578789 C51.3797355,111.611341 49.1540667,112.175758 47.5152755,113.659903 C41.7984763,110.201165 35.9630875,108.071042 32.4127707,110.155829 C26.2389571,113.781593 25.3223267,117.035345 29.1479795,120.446795 C23.1430531,120.391915 18.5659715,122.039398 26.2385235,126.760158 C19.1426595,125.747156 14.0324667,126.237171 16.9293483,130.392863 C23.3886875,139.658247 55.2762819,142.472525 79.2699715,139.343283 C94.3488451,139.203372 106.969424,137.111644 109.547392,132.649665 C111.445476,129.365545 106.203252,128.744729 99.3363291,129.270536" id="Fill-17" fill="#FFAB01"></path>
                <path d="M19.8062843,121.525717 C26.4535891,124.464506 30.8416211,130.421041 32.1092507,137.118346 C26.3068155,140.690966 18.9512251,141.456248 12.3032699,138.517459 C5.65531472,135.578671 1.26706592,129.622353 8.67199997e-05,122.924614 C5.80273872,119.351994 13.1587627,118.588013 19.8062843,121.525717" id="Fill-19" fill="#FEC12F"></path>
                <path d="M30.8566237,136.65755 L2.49679888,124.120845 L2.65462928,123.763366 L31.0146709,136.300071 L30.8566237,136.65755 Z" id="Fill-21" fill="#FFFFFF"></path>
                <path d="M3.73609272,128.986678 L3.56915672,128.632887 L8.32748312,126.385412 L8.49441912,126.739204 L3.73609272,128.986678 Z" id="Fill-23" fill="#FFFFFF"></path>
                <path d="M7.46457576,131.646664 L7.29763976,131.292873 L13.162947,128.523279 L13.329883,128.876853 L7.46457576,131.646664 Z" id="Fill-25" fill="#FFFFFF"></path>
                <path d="M8.36108712,135.644787 L8.19415112,135.290996 L17.9980639,130.660473 L18.1647831,131.014265 L8.36108712,135.644787 Z" id="Fill-27" fill="#FFFFFF"></path>
                <path d="M13.4630849,137.65784 L13.2961489,137.304049 L22.8340481,132.798036 L23.0009841,133.151828 L13.4630849,137.65784 Z" id="Fill-29" fill="#FFFFFF"></path>
                <path d="M22.5252815,137.798077 L22.3583455,137.444285 L27.6699455,134.935426 L27.8368815,135.289217 L22.5252815,137.798077 Z" id="Fill-31" fill="#FFFFFF"></path>
                <path d="M7.67766848,126.276477 L6.13470288,121.243791 L6.50846608,121.129042 L8.05143168,126.161728 L7.67766848,126.276477 Z" id="Fill-33" fill="#FFFFFF"></path>
                <path d="M12.5130022,128.414712 L10.1080398,120.567965 L10.481803,120.453216 L12.8867654,128.299963 L12.5130022,128.414712 Z" id="Fill-35" fill="#FFFFFF"></path>
                <path d="M17.3487696,130.552123 L14.3374176,120.729915 L14.7111808,120.614949 L17.7225328,130.437374 L17.3487696,130.552123 Z" id="Fill-37" fill="#FFFFFF"></path>
                <path d="M22.183995,132.68973 L19.091343,122.599629 L19.4651062,122.48488 L22.5575414,132.574981 L22.183995,132.68973 Z" id="Fill-39" fill="#FFFFFF"></path>
                <path d="M27.0201742,134.827119 L24.3626398,126.159992 L24.7361862,126.045244 L27.3939374,134.71237 L27.0201742,134.827119 Z" id="Fill-41" fill="#FFFFFF"></path>
                <path d="M38.272181,115.960218 C42.821729,122.579434 43.4979282,130.726394 40.8093914,137.761006 C33.281445,137.755583 25.9206514,134.208343 21.3708866,127.588259 C16.8215554,120.969044 16.145573,112.821433 18.8341098,105.787472 C26.3614058,105.792895 33.7228498,109.340352 38.272181,115.960218" id="Fill-43" fill="#FEC12F"></path>
                <path d="M39.8978774,136.600783 L20.489291,108.361038 L20.8452766,108.116356 L40.253863,136.355884 L39.8978774,136.600783 Z" id="Fill-45" fill="#FFFFFF"></path>
                <path d="M24.6125235,114.301564 L18.8354539,113.655586 L18.8833667,113.226091 L24.6606531,113.872069 L24.6125235,114.301564 Z" id="Fill-47" fill="#FFFFFF"></path>
                <path d="M27.9223224,119.116531 L20.8015264,118.320447 L20.8494392,117.890951 L27.9702352,118.687036 L27.9223224,119.116531 Z" id="Fill-49" fill="#FFFFFF"></path>
                <path d="M31.2314709,123.931498 L19.3269829,122.600714 L19.3751125,122.171218 L31.2791669,123.502003 L31.2314709,123.931498 Z" id="Fill-51" fill="#FFFFFF"></path>
                <path d="M34.541183,128.747506 L22.959727,127.452947 L23.0076398,127.023451 L34.5890958,128.318011 L34.541183,128.747506 Z" id="Fill-53" fill="#FFFFFF"></path>
                <path d="M37.8504399,133.562256 L31.4021575,132.841225 L31.4500703,132.411512 L37.8983527,133.132761 L37.8504399,133.562256 Z" id="Fill-55" fill="#FFFFFF"></path>
                <path d="M24.5308983,113.502117 L24.1129079,113.393225 L25.5778255,107.765102 L25.9958159,107.873995 L24.5308983,113.502117 Z" id="Fill-57" fill="#FFFFFF"></path>
                <path d="M27.8395265,118.317713 L27.4215361,118.208821 L29.7059577,109.433236 L30.1239481,109.542128 L27.8395265,118.317713 Z" id="Fill-59" fill="#FFFFFF"></path>
                <path d="M31.1493254,123.13268 L30.731335,123.023788 L33.5904934,112.038905 L34.0084838,112.147798 L31.1493254,123.13268 Z" id="Fill-61" fill="#FFFFFF"></path>
                <path d="M34.4582787,127.947625 L34.0402883,127.838733 L36.9777115,116.555373 L37.3954851,116.664265 L34.4582787,127.947625 Z" id="Fill-63" fill="#FFFFFF"></path>
                <path d="M37.7688147,132.763004 L37.3508243,132.654112 L39.8728587,122.96162 L40.2906323,123.070512 L37.7688147,132.763004 Z" id="Fill-65" fill="#FFFFFF"></path>
                <path d="M10.5918724,143.189738 C9.727274,141.859388 10.8021684,140.728601 14.909878,140.12709 C19.3930852,139.4707 23.6764028,139.917332 27.1996196,140.730336 C18.8890252,136.701541 9.1991492,131.043483 18.0461068,130.388829 C20.80467,130.18471 25.0465788,131.521134 29.7643636,133.608741 C24.5017604,129.323116 21.6061796,125.800822 24.7946572,125.146384 C27.7550612,124.538366 33.7916404,128.023568 40.2167252,132.65062 C36.5556236,128.773232 34.4355364,125.389764 36.0801812,123.793474 C37.4221732,122.490672 40.2856676,123.986096 43.5788596,126.756123 C43.432086,124.320148 44.4549484,122.849235 46.7896676,123.144676 C48.9856348,123.422112 50.7640452,126.24203 52.0344932,129.624848 C54.1415724,124.378065 59.7055276,121.170082 65.3186964,122.763119 C71.912018,124.633376 66.6151604,137.210644 63.6653796,143.189738 L10.5918724,143.189738 Z" id="Fill-67" fill="#13C6A4"></path>
                <path d="M51.3601151,137.003792 C49.6163927,126.08854 46.5939839,118.472375 44.3652799,114.005408 C41.9540303,109.171851 39.9334543,106.891839 39.9132919,106.86928 L40.1042927,106.698132 C40.1855927,106.788803 48.2657287,116.006899 51.6133375,136.963229 L51.3601151,137.003792 Z" id="Fill-69" fill="#35445F"></path>
                <path d="M53.2078798,134.933344 L52.9516222,134.920112 C53.568635,122.746525 48.8679774,111.584204 48.8204982,111.472926 L49.0563766,111.37206 C49.1040726,111.483772 53.827711,122.698586 53.2078798,134.933344" id="Fill-71" fill="#35445F"></path>
                <path d="M48.4926966,135.466308 L48.236439,135.454378 C48.5080894,129.652505 46.565995,125.699196 44.8886134,123.404434 C43.070095,120.916181 41.1618214,119.785177 41.142743,119.773897 L41.2719558,119.552425 C41.3495702,119.597544 49.020171,124.202904 48.4926966,135.466308" id="Fill-73" fill="#35445F"></path>
                <path d="M39.0892134,105.023188 C37.2689606,105.975452 36.1056118,107.345499 36.491299,108.08345 C36.8763358,108.821183 38.6651526,108.64765 40.4854054,107.695385 C42.305875,106.743555 43.4687902,105.373508 43.083103,104.63534 C42.6980662,103.897823 40.9092494,104.070923 39.0892134,105.023188" id="Fill-75" fill="#35445F"></path>
                <path d="M39.5654797,105.935344 C38.9872741,106.237726 38.6178469,106.672428 38.7401221,106.907132 C38.8630477,107.141402 39.4306301,107.086305 40.0088357,106.783706 C40.5868245,106.481324 40.9564685,106.046189 40.8335429,105.812353 C40.7112677,105.577649 40.1436853,105.632529 39.5654797,105.935344" id="Fill-77" fill="#0C1153"></path>
                <path d="M48.5560022,110.689509 C47.7972022,111.085166 47.3130878,111.656091 47.4737366,111.963245 C47.6346022,112.270182 48.3790934,112.198166 49.1365926,111.802076 C49.8951758,111.405118 50.3792902,110.834844 50.2182078,110.528123 C50.0577758,110.220535 49.3132846,110.292552 48.5560022,110.689509" id="Fill-79" fill="#35445F"></path>
                <path d="M48.7540707,111.069114 C48.5136395,111.194492 48.3592779,111.375617 48.4102259,111.473013 C48.4607403,111.570625 48.6972691,111.5485 48.9385675,111.422471 C49.1789987,111.296226 49.3324931,111.115317 49.2815451,111.017054 C49.2308139,110.920092 48.9945019,110.942434 48.7540707,111.069114" id="Fill-81" fill="#0C1153"></path>
                <path d="M40.6585853,119.068766 C39.8481869,119.817129 39.4373509,120.690436 39.7408709,121.019065 C40.0437405,121.346826 40.9462789,121.006267 41.7558101,120.25747 C42.5657749,119.509324 42.9768277,118.636451 42.6737413,118.307822 C42.3702213,117.979627 41.4683333,118.320186 40.6585853,119.068766" id="Fill-83" fill="#35445F"></path>
                <path d="M41.0327821,119.474205 C40.7760909,119.71238 40.6449269,119.989599 40.7411861,120.093503 C40.8378789,120.19784 41.1240549,120.089381 41.3816133,119.85164 C41.6389549,119.614333 41.7694685,119.337114 41.6732093,119.23256 C41.5758661,119.128874 41.2899069,119.236681 41.0327821,119.474205" id="Fill-85" fill="#0C1153"></path>
                <path d="M34.0923203,134.623218 C33.8104803,134.580051 33.6149267,134.316063 33.6574195,134.032987 C33.7009963,133.749694 33.9652755,133.554686 34.2479827,133.597418 C34.5304731,133.640151 34.7253763,133.905874 34.6828835,134.188733 C34.6397403,134.471159 34.3761115,134.66595 34.0923203,134.623218 M35.2717123,134.266389 C35.2365907,134.237756 35.2008187,134.21216 35.1648299,134.186998 C35.1834747,134.180274 35.2023363,134.1742 35.2209811,134.166608 C35.7139843,133.973335 36.0318131,133.60783 35.9307843,133.350567 C35.8295387,133.093304 35.3480259,133.040376 34.8558899,133.233649 C34.8133971,133.249701 34.7730723,133.268572 34.7340483,133.287227 C34.7370835,133.267705 34.7414195,133.247965 34.7440211,133.228009 C34.8233699,132.704589 34.6661899,132.246894 34.3923715,132.205029 C34.1194203,132.164032 33.8334611,132.554265 33.7541123,133.078119 C33.7473915,133.123021 33.7428387,133.167272 33.7391531,133.210872 C33.7241939,133.198074 33.7092347,133.184409 33.6936251,133.172478 C33.2806211,132.84168 32.8049619,132.748406 32.6317387,132.965323 C32.4598163,133.180938 32.6547195,133.62475 33.0685907,133.954897 C33.1037123,133.98353 33.1394843,134.009343 33.1756899,134.034289 C33.1572619,134.040579 33.1384003,134.047087 33.1197555,134.054245 C32.6271859,134.247735 32.3091403,134.612806 32.4099523,134.870286 C32.5105475,135.127983 32.9922771,135.180477 33.4841963,134.987421 C33.5273395,134.971152 33.5672307,134.953148 33.6066883,134.933192 C33.6034363,134.953148 33.5993171,134.972671 33.5967155,134.993061 C33.5169331,135.516698 33.6749803,135.974392 33.9481483,136.015389 C34.2215331,136.057254 34.5074923,135.66637 34.5864075,135.142733 C34.5937787,135.097615 34.5978979,135.054014 34.6009331,135.00998 C34.6165427,135.023429 34.6315019,135.036661 34.6473283,135.049025 C35.0607659,135.379389 35.5357747,135.472664 35.7083475,135.256615 C35.8809203,135.039698 35.6855835,134.596537 35.2717123,134.266389" id="Fill-87" fill="#FFFFFF"></path>
                <path d="M264.330647,101.654947 C264.330647,101.654947 263.795584,100.014406 264.405659,98.5031464 C264.626579,97.9554315 265.466895,97.1970905 266.036429,97.4270222 C266.604445,97.6556525 266.783305,98.5382869 266.462441,99.3337207 C265.853233,100.845414 264.330647,101.654947 264.330647,101.654947" id="Fill-89" fill="#FFAB01"></path>
                <path d="M263.499132,104.24502 C263.499132,104.24502 264.235602,102.927902 265.555914,102.450251 C266.035258,102.277585 267.012159,102.394286 267.196873,102.907945 C267.38267,103.42052 266.924355,104.057604 266.227994,104.308794 C264.906598,104.786878 263.499132,104.24502 263.499132,104.24502" id="Fill-91" fill="#FFAB01"></path>
                <path d="M261.961196,107.022358 C261.961196,107.022358 263.169856,106.120418 264.570601,106.22367 C265.078563,106.261631 265.922132,106.76748 265.88159,107.311725 C265.841699,107.855535 265.163549,108.249456 264.425345,108.19501 C263.024383,108.092191 261.961196,107.022358 261.961196,107.022358" id="Fill-93" fill="#FFAB01"></path>
                <path d="M263.431685,104.299466 C263.431685,104.299466 262.140641,103.7652 261.392248,102.576063 C261.121465,102.144832 260.958648,101.207535 261.33588,100.970662 C261.713329,100.732921 262.364596,101.08758 262.758738,101.714469 C263.507782,102.904041 263.431685,104.299466 263.431685,104.299466" id="Fill-95" fill="#FFAB01"></path>
                <path d="M262.140099,107.116413 C262.140099,107.116413 260.809381,106.60796 260.061855,105.418388 C259.790204,104.987808 259.645165,104.039014 260.044511,103.787608 C260.44429,103.536201 261.112467,103.880665 261.50726,104.507555 C262.255437,105.696692 262.140099,107.116413 262.140099,107.116413" id="Fill-97" fill="#FFAB01"></path>
                <path d="M259.680568,110.610378 C259.680568,110.610378 258.493372,110.330122 257.922754,109.421891 C257.714843,109.093045 257.682106,108.320388 258.080801,108.069198 C258.480364,107.817575 259.067241,108.031888 259.368593,108.509973 C259.939861,109.419288 259.680568,110.610378 259.680568,110.610378" id="Fill-99" fill="#FFAB01"></path>
                <path d="M259.830356,110.693436 C259.830356,110.693436 260.698856,109.91709 261.83684,109.831191 C262.248543,109.800389 262.983278,110.062642 263.012546,110.453309 C263.042031,110.842241 262.542524,111.198418 261.942638,111.24332 C260.805739,111.329653 259.830356,110.693436 259.830356,110.693436" id="Fill-101" fill="#FFAB01"></path>
                <path d="M253.052494,126.538946 C253.31157,126.787967 253.543763,126.867141 253.56089,126.872781 L253.650211,126.600767 L253.605117,126.735907 L253.650645,126.600767 C253.624195,126.591874 253.015421,126.375825 252.733798,125.448072 C252.418354,124.408173 252.635804,122.933355 253.381163,121.063967 C254.403591,118.499793 256.403571,115.263829 259.326469,111.445877 C262.721774,107.01123 263.663553,104.117994 264.288371,102.202836 C264.448369,101.712604 264.586037,101.288748 264.736063,100.941898 L264.473951,100.828668 C264.318506,101.187665 264.178453,101.616943 264.016503,102.11455 C263.39884,104.010837 262.464649,106.876091 259.099913,111.272343 C252.593528,119.771359 251.900852,123.72662 252.465833,125.54807 C252.613257,126.024203 252.842415,126.337214 253.052494,126.538946" id="Fill-103" fill="#FFAB01"></path>
                <path d="M171.504995,128.838806 C164.956117,125.295688 169.942301,123.747986 175.948094,123.534974 C172.939994,120.899869 174.646427,118.191663 181.712373,114.952879 C184.88394,113.498885 188.830784,114.092587 192.73752,115.65634 C195.519497,110.13776 199.396749,106.283799 204.095889,108.100911 C207.981378,109.603711 210.8891,111.493273 212.733201,113.559405 C213.902837,113.064184 215.164613,112.591739 216.517445,112.14706 C219.461589,111.179611 221.687257,111.744029 223.326049,113.228173 C229.042848,109.769435 234.878237,107.639312 238.428553,109.7241 C244.602367,113.349864 245.518997,116.603615 241.693345,120.015065 C247.698271,119.960186 252.275353,121.607668 244.602801,126.328428 C251.698665,125.315427 256.808857,125.805442 253.911976,129.961134 C247.452637,139.226517 215.565042,142.040795 191.571353,138.911554 C176.492479,138.771643 163.871901,136.679914 161.293932,132.217936 C159.395848,128.933816 164.638072,128.313 171.504995,128.838806" id="Fill-105" fill="#FFAB01"></path>
                <path d="M251.035018,121.093988 C244.387713,124.032776 239.999681,129.989311 238.732052,136.686617 C244.534487,140.259236 251.890077,141.024519 258.538032,138.08573 C265.185988,135.146941 269.574236,129.190624 270.841216,122.492884 C265.038564,118.920265 257.68254,118.156284 251.035018,121.093988" id="Fill-107" fill="#FEC12F"></path>
                <path d="M239.984679,136.225842 L268.344504,123.689137 L268.186673,123.331658 L239.826632,135.868363 L239.984679,136.225842 Z" id="Fill-109" fill="#FFFFFF"></path>
                <path d="M267.105231,128.554949 L267.272167,128.201158 L262.513841,125.953683 L262.346905,126.307474 L267.105231,128.554949 Z" id="Fill-111" fill="#FFFFFF"></path>
                <path d="M263.376748,131.214934 L263.543684,130.861143 L257.678377,128.09155 L257.511441,128.445124 L263.376748,131.214934 Z" id="Fill-113" fill="#FFFFFF"></path>
                <path d="M262.480215,135.213079 L262.647151,134.859288 L252.843238,130.228766 L252.676519,130.582557 L262.480215,135.213079 Z" id="Fill-115" fill="#FFFFFF"></path>
                <path d="M257.378218,137.226111 L257.545154,136.872319 L248.007254,132.366307 L247.840318,132.720098 L257.378218,137.226111 Z" id="Fill-117" fill="#FFFFFF"></path>
                <path d="M248.316021,137.366347 L248.482957,137.012556 L243.171357,134.503696 L243.004421,134.857488 L248.316021,137.366347 Z" id="Fill-119" fill="#FFFFFF"></path>
                <path d="M263.163656,125.844769 L264.706621,120.812083 L264.332858,120.697334 L262.789892,125.73002 L263.163656,125.844769 Z" id="Fill-121" fill="#FFFFFF"></path>
                <path d="M258.328322,127.983005 L260.733284,120.136257 L260.359521,120.021508 L257.954559,127.868256 L258.328322,127.983005 Z" id="Fill-123" fill="#FFFFFF"></path>
                <path d="M253.492554,130.120394 L256.503906,120.298185 L256.130143,120.183219 L253.118791,130.005645 L253.492554,130.120394 Z" id="Fill-125" fill="#FFFFFF"></path>
                <path d="M248.657329,132.258 L251.749981,122.167899 L251.376218,122.05315 L248.283783,132.143251 L248.657329,132.258 Z" id="Fill-127" fill="#FFFFFF"></path>
                <path d="M243.821128,134.39539 L246.478663,125.728263 L246.105116,125.613514 L243.447365,134.280641 L243.821128,134.39539 Z" id="Fill-129" fill="#FFFFFF"></path>
                <path d="M232.569121,115.528511 C228.019573,122.147726 227.343374,130.294687 230.031911,137.329298 C237.559857,137.323875 244.920651,133.776635 249.470416,127.156552 C254.019747,120.537336 254.695729,112.389725 252.007193,105.355764 C244.479897,105.361187 237.118453,108.908644 232.569121,115.528511" id="Fill-131" fill="#FEC12F"></path>
                <path d="M230.943447,136.169075 L250.352033,107.92933 L249.996047,107.684648 L230.587461,135.924176 L230.943447,136.169075 Z" id="Fill-133" fill="#FFFFFF"></path>
                <path d="M246.228801,113.869856 L252.00587,113.223878 L251.957957,112.794383 L246.180671,113.440361 L246.228801,113.869856 Z" id="Fill-135" fill="#FFFFFF"></path>
                <path d="M242.919002,118.684823 L250.039798,117.888739 L249.991885,117.459244 L242.871089,118.255328 L242.919002,118.684823 Z" id="Fill-137" fill="#FFFFFF"></path>
                <path d="M239.609832,123.499768 L251.51432,122.168984 L251.46619,121.739489 L239.562136,123.070273 L239.609832,123.499768 Z" id="Fill-139" fill="#FFFFFF"></path>
                <path d="M236.300141,128.315798 L247.881597,127.021239 L247.833684,126.591744 L236.252228,127.886303 L236.300141,128.315798 Z" id="Fill-141" fill="#FFFFFF"></path>
                <path d="M232.990884,133.130548 L239.439167,132.409517 L239.391254,131.979805 L232.942971,132.701053 L232.990884,133.130548 Z" id="Fill-143" fill="#FFFFFF"></path>
                <path d="M246.310426,113.07041 L246.728416,112.961517 L245.263499,107.333395 L244.845508,107.442287 L246.310426,113.07041 Z" id="Fill-145" fill="#FFFFFF"></path>
                <path d="M243.001776,117.886006 L243.419766,117.777113 L241.135345,109.001528 L240.717354,109.11042 L243.001776,117.886006 Z" id="Fill-147" fill="#FFFFFF"></path>
                <path d="M239.691977,122.700951 L240.109967,122.592059 L237.250809,111.607176 L236.832819,111.716068 L239.691977,122.700951 Z" id="Fill-149" fill="#FFFFFF"></path>
                <path d="M236.383024,127.515918 L236.801014,127.407025 L233.863591,116.123665 L233.445817,116.232557 L236.383024,127.515918 Z" id="Fill-151" fill="#FFFFFF"></path>
                <path d="M233.072488,132.331297 L233.490478,132.222404 L230.968444,122.529912 L230.55067,122.638804 L233.072488,132.331297 Z" id="Fill-153" fill="#FFFFFF"></path>
                <path d="M260.249452,142.758031 C261.11405,141.42768 260.039156,140.296893 255.931446,139.695383 C251.448239,139.038992 247.164921,139.485624 243.641704,140.298628 C251.952299,136.269833 261.642175,130.611776 252.795217,129.957121 C250.036654,129.753002 245.794745,131.089426 241.07696,133.177033 C246.339564,128.891409 249.235144,125.369114 246.046667,124.714676 C243.086263,124.106658 237.049684,127.59186 230.624599,132.218912 C234.2857,128.341525 236.405788,124.958057 234.761143,123.361766 C233.419151,122.058964 230.555656,123.554388 227.262464,126.324415 C227.409238,123.88844 226.386376,122.417527 224.051656,122.712968 C221.855689,122.990405 220.077279,125.810323 218.806831,129.19314 C216.699752,123.946357 211.135796,120.738374 205.522628,122.331411 C198.929306,124.201668 204.226164,136.778937 207.175944,142.758031 L260.249452,142.758031 Z" id="Fill-155" fill="#13C6A4"></path>
                <path d="M219.481209,136.572085 C221.224931,125.656832 224.24734,118.040667 226.476044,113.5737 C228.887294,108.740143 230.90787,106.460131 230.928032,106.437572 L230.737031,106.266424 C230.655731,106.357096 222.575595,115.575191 219.227987,136.531521 L219.481209,136.572085 Z" id="Fill-157" fill="#35445F"></path>
                <path d="M217.633423,134.501636 L217.88968,134.488404 C217.272667,122.314817 221.973325,111.152497 222.020804,111.041218 L221.784926,110.940352 C221.73723,111.052064 217.013591,122.266879 217.633423,134.501636" id="Fill-159" fill="#35445F"></path>
                <path d="M222.348627,135.0346 L222.604885,135.02267 C222.333235,129.220797 224.275329,125.267488 225.952711,122.972726 C227.771229,120.484473 229.679503,119.353469 229.698581,119.34219 L229.569368,119.120718 C229.491754,119.165836 221.821153,123.771196 222.348627,135.0346" id="Fill-161" fill="#35445F"></path>
                <path d="M231.752111,104.59148 C233.572363,105.543744 234.735712,106.913791 234.350025,107.651742 C233.964988,108.389476 232.176171,108.215942 230.355919,107.263678 C228.535449,106.311847 227.372534,104.9418 227.758221,104.203633 C228.143258,103.466116 229.932075,103.639215 231.752111,104.59148" id="Fill-163" fill="#35445F"></path>
                <path d="M231.275844,105.503637 C231.85405,105.806019 232.223477,106.24072 232.101202,106.475424 C231.978276,106.709694 231.410694,106.654597 230.832488,106.351998 C230.2545,106.049616 229.884856,105.614481 230.007781,105.380645 C230.130056,105.145941 230.697639,105.200821 231.275844,105.503637" id="Fill-165" fill="#0C1153"></path>
                <path d="M222.285322,110.257802 C223.044122,110.653458 223.528236,111.224383 223.367587,111.531537 C223.206722,111.838474 222.462231,111.766458 221.704731,111.370368 C220.946148,110.97341 220.462034,110.403136 220.623116,110.096416 C220.783548,109.788828 221.528039,109.860844 222.285322,110.257802" id="Fill-167" fill="#35445F"></path>
                <path d="M222.087253,110.637406 C222.327685,110.762784 222.482046,110.943909 222.431098,111.041305 C222.380584,111.138918 222.144055,111.116792 221.902757,110.990763 C221.662325,110.864518 221.508831,110.683609 221.559779,110.585346 C221.61051,110.488384 221.846822,110.510727 222.087253,110.637406" id="Fill-169" fill="#0C1153"></path>
                <path d="M230.182739,118.637058 C230.993137,119.385421 231.403973,120.258728 231.100453,120.587357 C230.797584,120.915118 229.895045,120.574559 229.085514,119.825762 C228.275549,119.077616 227.864496,118.204743 228.167583,117.876114 C228.471103,117.547919 229.372991,117.888478 230.182739,118.637058" id="Fill-171" fill="#35445F"></path>
                <path d="M229.80852,119.042497 C230.065212,119.280672 230.196376,119.557892 230.100116,119.661795 C230.003424,119.766132 229.717248,119.657673 229.459689,119.419933 C229.202348,119.182626 229.071834,118.905406 229.168093,118.800852 C229.265436,118.697166 229.551396,118.804974 229.80852,119.042497" id="Fill-173" fill="#0C1153"></path>
                <path d="M236.158397,133.757047 C236.115904,133.474188 236.311024,133.208465 236.593298,133.165732 C236.876005,133.122999 237.140284,133.318008 237.183861,133.601301 C237.226354,133.884377 237.0308,134.148365 236.74896,134.191532 C236.465386,134.234264 236.20154,134.039473 236.158397,133.757047 M235.132933,134.824929 C235.305506,135.040978 235.780515,134.947703 236.194169,134.617339 C236.209779,134.604975 236.224738,134.591743 236.240348,134.578294 C236.243383,134.622328 236.247719,134.665712 236.254873,134.71083 C236.333788,135.234684 236.619748,135.625568 236.893132,135.583703 C237.1663,135.542489 237.324348,135.085012 237.244565,134.561375 C237.241964,134.540984 237.237844,134.521462 237.234592,134.501506 C237.27405,134.521462 237.313941,134.539466 237.357084,134.555735 C237.849004,134.748791 238.330733,134.696297 238.431328,134.4386 C238.53214,134.18112 238.214095,133.815832 237.721525,133.622559 C237.70288,133.615401 237.684236,133.608893 237.665591,133.602602 C237.701796,133.577657 237.737568,133.551844 237.77269,133.523211 C238.186561,133.193064 238.381464,132.749252 238.209542,132.533637 C238.036319,132.31672 237.56066,132.409994 237.147656,132.740575 C237.132046,132.752723 237.117087,132.766388 237.102128,132.779186 C237.098442,132.735586 237.093889,132.691335 237.087168,132.646433 C237.00782,132.122579 236.722077,131.732346 236.448909,131.773126 C236.175091,131.815208 236.017911,132.272903 236.09726,132.796323 C236.099861,132.816279 236.104197,132.836019 236.107232,132.855541 C236.068208,132.836886 236.027884,132.818014 235.985391,132.801963 C235.493472,132.60869 235.011742,132.661617 234.910496,132.918881 C234.809468,133.176144 235.127296,133.541649 235.6203,133.734705 C235.638944,133.742514 235.657806,133.748587 235.676451,133.755312 C235.640462,133.780474 235.60469,133.80607 235.569568,133.834703 C235.155697,134.164851 234.960577,134.608012 235.132933,134.824929" id="Fill-175" fill="#FFFFFF"></path>
                <path d="M156.079697,24.8215052 L156.079697,24.8215052 L154.175109,24.8215052 L154.175109,18.5591177 L156.079697,18.5591177 L156.079697,24.8215052 Z" id="Fill-177" fill="#35445F"></path>
                <path d="M156.079697,41.2585477 L156.079697,41.2585477 L154.175109,41.2585477 L154.175109,30.6920975 L156.079697,30.6920975 L156.079697,41.2585477 Z" id="Fill-179" fill="#35445F"></path>
                <path d="M156.079697,53.7840168 L156.079697,53.7840168 L154.175109,53.7840168 L154.175109,43.7062801 L156.079697,43.7062801 L156.079697,53.7840168 Z" id="Fill-181" fill="#35445F"></path>
                <path d="M224.138376,132.950919 C224.138376,138.547155 219.559777,143.128004 213.96612,143.128004 L165.06623,143.128004 C159.472356,143.128004 154.893974,138.547155 154.893974,132.950919 L154.893974,10.1764555 C154.893974,4.57956876 159.472356,2.16916742e-05 165.06623,2.16916742e-05 L213.96612,2.16916742e-05 C219.559777,2.16916742e-05 224.138376,4.57956876 224.138376,10.1764555 L224.138376,132.950919 Z" id="Fill-183" fill="#35445F"></path>
                <path d="M165.066317,141.691971 C160.24837,141.691971 156.328626,137.769465 156.328626,132.950876 L156.328626,10.1764121 C156.328626,5.3567382 160.24837,1.43466589 165.066317,1.43466589 L213.966207,1.43466589 C218.785238,1.43466589 222.703681,5.3567382 222.703681,10.1764121 L222.703681,132.950876 C222.703681,137.769465 218.785238,141.691971 213.966207,141.691971 L165.066317,141.691971 Z" id="Fill-185" fill="#35445F"></path>
                <mask id="mask-2" fill="white">
                    <use xlink:href="#path-1"></use>
                </mask>
                <g id="Clip-188"></g>
                <path d="M159.39201,125.513038 L219.64073,125.513038 L219.64073,18.0680832 L159.39201,18.0680832 L159.39201,125.513038 Z" id="Fill-187" fill="#FFFFFF" mask="url(#mask-2)"></path>
                <path d="M158.236683,18.06817 L165.543927,18.06817 L155.892425,35.036702 L145.551282,35.036702 L158.236683,18.06817 Z" id="Fill-189" fill="#13C6A4" mask="url(#mask-2)"></path>
                <path d="M165.543949,18.06817 C165.889094,18.1369326 173.334874,18.06817 173.334874,18.06817 L167.061115,35.036702 L155.892446,35.036702 L165.543949,18.06817 Z" id="Fill-190" fill="#FDFDFD" mask="url(#mask-2)"></path>
                <path d="M173.334765,18.06817 L181.194199,18.06817 L177.815588,35.036702 L167.061224,35.036702 L173.334765,18.06817 Z" id="Fill-191" fill="#13C6A4" mask="url(#mask-2)"></path>
                <path d="M181.194199,18.06817 L188.777646,18.06817 L188.777646,35.036702 L177.815588,35.036702 L181.194199,18.06817 Z" id="Fill-192" fill="#FDFDFD" mask="url(#mask-2)"></path>
                <path d="M188.777538,18.06817 L196.498436,18.06817 L199.738729,35.036702 L188.777538,35.036702 L188.777538,18.06817 Z" id="Fill-193" fill="#13C6A4" mask="url(#mask-2)"></path>
                <path d="M196.498501,18.06817 L204.150891,18.06817 L210.286981,35.036702 L199.738577,35.036702 L196.498501,18.06817 Z" id="Fill-194" fill="#FDFDFD" mask="url(#mask-2)"></path>
                <path d="M204.150869,18.06817 L211.941794,18.06817 L221.455411,35.036702 L210.286959,35.036702 L204.150869,18.06817 Z" id="Fill-195" fill="#13C6A4" mask="url(#mask-2)"></path>
                <path d="M145.551347,35.036702 L145.551347,38.2789572 C145.551347,38.2789572 147.068079,40.1414046 150.929071,40.1414046 C154.789411,40.1414046 155.478402,38.5546584 155.89249,38.1409981 L155.89249,35.036702 L145.551347,35.036702 Z" id="Fill-196" fill="#13B6A4" mask="url(#mask-2)"></path>
                <path d="M167.061115,35.036702 L167.061115,38.2789572 C167.061115,38.2789572 168.622726,40.1414046 172.599705,40.1414046 C176.575383,40.1414046 177.28627,38.5546584 177.712282,38.1409981 L177.712282,35.036702 L167.061115,35.036702 Z" id="Fill-197" fill="#13B6A4" mask="url(#mask-2)"></path>
                <path d="M188.777538,35.036702 L188.777538,38.2789572 C188.777538,38.2789572 190.384026,40.1414046 194.47786,40.1414046 C198.569526,40.1414046 199.300793,38.5546584 199.738729,38.1409981 L199.738729,35.036702 L188.777538,35.036702 Z" id="Fill-198" fill="#13B6A4" mask="url(#mask-2)"></path>
                <path d="M210.286894,35.036702 L210.286894,38.2789572 C210.286894,38.2789572 211.924385,40.1414046 216.095183,40.1414046 C220.264247,40.1414046 221.009172,38.5546584 221.455563,38.1409981 L221.455563,35.036702 L210.286894,35.036702 Z" id="Fill-199" fill="#13B6A4" mask="url(#mask-2)"></path>
                <path d="M155.892533,35.036702 L155.892533,38.2789572 C155.892533,38.2789572 157.530891,40.1414046 161.699521,40.1414046 C165.869669,40.1414046 166.61351,38.5546584 167.061202,38.1409981 L167.061202,35.036702 L155.892533,35.036702 Z" id="Fill-200" fill="#E6E7E9" mask="url(#mask-2)"></path>
                <path d="M177.712282,35.036702 L177.712282,38.2789572 C177.712282,38.2789572 179.35064,40.1414046 183.51927,40.1414046 C187.689418,40.1414046 188.330496,38.5546584 188.777538,38.1409981 L188.777538,35.036702 L177.712282,35.036702 Z" id="Fill-201" fill="#E6E7E9" mask="url(#mask-2)"></path>
                <path d="M199.738642,35.036702 L199.738642,38.2789572 C199.738642,38.2789572 201.286811,40.1414046 205.223465,40.1414046 C209.162288,40.1414046 209.86472,38.5546584 210.286829,38.1409981 L210.286829,35.036702 L199.738642,35.036702 Z" id="Fill-202" fill="#E6E7E9" mask="url(#mask-2)"></path>
                <path d="M221.455476,35.036702 L221.455476,38.2789572 C221.455476,38.2789572 223.002344,40.1414046 226.939866,40.1414046 C230.877821,40.1414046 231.58112,38.5546584 232.00323,38.1409981 L232.00323,35.036702 L221.455476,35.036702 Z" id="Fill-203" fill="#E6E7E9" mask="url(#mask-2)"></path>
                <path d="M221.455476,35.036702 L232.00323,35.036702 L219.438152,18.06817 L211.941642,18.06817 L221.455476,35.036702 Z" id="Fill-204" fill="#FDFDFD" mask="url(#mask-2)"></path>
                <path d="M46.43585,24.8215052 L46.43585,24.8215052 L44.531262,24.8215052 L44.531262,18.5591177 L46.43585,18.5591177 L46.43585,24.8215052 Z" id="Fill-205" fill="#35445F" mask="url(#mask-2)"></path>
                <path d="M46.43585,41.2585477 L46.43585,41.2585477 L44.531262,41.2585477 L44.531262,30.6920975 L46.43585,30.6920975 L46.43585,41.2585477 Z" id="Fill-206" fill="#35445F" mask="url(#mask-2)"></path>
                <path d="M46.43585,53.7840168 L46.43585,53.7840168 L44.531262,53.7840168 L44.531262,43.7062801 L46.43585,43.7062801 L46.43585,53.7840168 Z" id="Fill-207" fill="#35445F" mask="url(#mask-2)"></path>
                <path d="M114.49453,132.950919 C114.49453,138.547155 109.915931,143.128004 104.322274,143.128004 L55.4223834,143.128004 C49.8285098,143.128004 45.2501274,138.547155 45.2501274,132.950919 L45.2501274,10.1764555 C45.2501274,4.57956876 49.8285098,2.16916742e-05 55.4223834,2.16916742e-05 L104.322274,2.16916742e-05 C109.915931,2.16916742e-05 114.49453,4.57956876 114.49453,10.1764555 L114.49453,132.950919 Z" id="Fill-208" fill="#35445F" mask="url(#mask-2)"></path>
                <path d="M55.4224702,141.691971 C50.6045238,141.691971 46.6847798,137.769465 46.6847798,132.950876 L46.6847798,10.1764121 C46.6847798,5.3567382 50.6045238,1.43466589 55.4224702,1.43466589 L104.322361,1.43466589 C109.141391,1.43466589 113.059834,5.3567382 113.059834,10.1764121 L113.059834,132.950876 C113.059834,137.769465 109.141391,141.691971 104.322361,141.691971 L55.4224702,141.691971 Z" id="Fill-209" fill="#35445F" mask="url(#mask-2)"></path>
                <path d="M49.748012,125.513038 L109.996732,125.513038 L109.996732,18.0680832 L49.748012,18.0680832 L49.748012,125.513038 Z" id="Fill-210" fill="#FFFFFF" mask="url(#mask-2)"></path>
                <path d="M48.5928366,18.06817 L55.9000806,18.06817 L46.2485782,35.036702 L35.907435,35.036702 L48.5928366,18.06817 Z" id="Fill-211" fill="#13C6A4" mask="url(#mask-2)"></path>
                <path d="M55.9001022,18.06817 C56.2452478,18.1369326 63.691027,18.06817 63.691027,18.06817 L57.4172686,35.036702 L46.2485998,35.036702 L55.9001022,18.06817 Z" id="Fill-212" fill="#FDFDFD" mask="url(#mask-2)"></path>
                <path d="M63.6909186,18.06817 L71.5503522,18.06817 L68.171741,35.036702 L57.417377,35.036702 L63.6909186,18.06817 Z" id="Fill-213" fill="#13C6A4" mask="url(#mask-2)"></path>
                <path d="M71.5503522,18.06817 L79.1337994,18.06817 L79.1337994,35.036702 L68.171741,35.036702 L71.5503522,18.06817 Z" id="Fill-214" fill="#FDFDFD" mask="url(#mask-2)"></path>
                <path d="M79.133691,18.06817 L86.8545894,18.06817 L90.0948822,35.036702 L79.133691,35.036702 L79.133691,18.06817 Z" id="Fill-215" fill="#13C6A4" mask="url(#mask-2)"></path>
                <path d="M86.8546545,18.06817 L94.5070441,18.06817 L100.643134,35.036702 L90.0947305,35.036702 L86.8546545,18.06817 Z" id="Fill-216" fill="#FDFDFD" mask="url(#mask-2)"></path>
                <path d="M94.5070224,18.06817 L102.297947,18.06817 L111.811565,35.036702 L100.643113,35.036702 L94.5070224,18.06817 Z" id="Fill-217" fill="#13C6A4" mask="url(#mask-2)"></path>
                <path d="M35.9075,35.036702 L35.9075,38.2789572 C35.9075,38.2789572 37.4242328,40.1414046 41.285224,40.1414046 C45.1455648,40.1414046 45.8345552,38.5546584 46.2486432,38.1409981 L46.2486432,35.036702 L35.9075,35.036702 Z" id="Fill-218" fill="#13B6A4" mask="url(#mask-2)"></path>
                <path d="M57.4172686,35.036702 L57.4172686,38.2789572 C57.4172686,38.2789572 58.978879,40.1414046 62.9558582,40.1414046 C66.9315366,40.1414046 67.6424238,38.5546584 68.0684358,38.1409981 L68.0684358,35.036702 L57.4172686,35.036702 Z" id="Fill-219" fill="#13B6A4" mask="url(#mask-2)"></path>
                <path d="M79.133691,35.036702 L79.133691,38.2789572 C79.133691,38.2789572 80.740179,40.1414046 84.8340134,40.1414046 C88.9256798,40.1414046 89.6569462,38.5546584 90.0948822,38.1409981 L90.0948822,35.036702 L79.133691,35.036702 Z" id="Fill-220" fill="#13B6A4" mask="url(#mask-2)"></path>
                <path d="M100.643048,35.036702 L100.643048,38.2789572 C100.643048,38.2789572 102.280538,40.1414046 106.451337,40.1414046 C110.620401,40.1414046 111.365325,38.5546584 111.811717,38.1409981 L111.811717,35.036702 L100.643048,35.036702 Z" id="Fill-221" fill="#13B6A4" mask="url(#mask-2)"></path>
                <path d="M46.2486866,35.036702 L46.2486866,38.2789572 C46.2486866,38.2789572 47.8870442,40.1414046 52.0556746,40.1414046 C56.2258226,40.1414046 56.9696634,38.5546584 57.4173554,38.1409981 L57.4173554,35.036702 L46.2486866,35.036702 Z" id="Fill-222" fill="#E6E7E9" mask="url(#mask-2)"></path>
                <path d="M68.0684142,35.036702 L68.0684142,38.2789572 C68.0684142,38.2789572 69.7067718,40.1414046 73.8754022,40.1414046 C78.0455502,40.1414046 78.6866278,38.5546584 79.1336694,38.1409981 L79.1336694,35.036702 L68.0684142,35.036702 Z" id="Fill-223" fill="#E6E7E9" mask="url(#mask-2)"></path>
                <path d="M90.0947955,35.036702 L90.0947955,38.2789572 C90.0947955,38.2789572 91.6429643,40.1414046 95.5796187,40.1414046 C99.5184411,40.1414046 100.220873,38.5546584 100.642983,38.1409981 L100.642983,35.036702 L90.0947955,35.036702 Z" id="Fill-224" fill="#E6E7E9" mask="url(#mask-2)"></path>
                <path d="M111.81163,35.036702 L111.81163,38.2789572 C111.81163,38.2789572 113.358498,40.1414046 117.296019,40.1414046 C121.233975,40.1414046 121.937274,38.5546584 122.359383,38.1409981 L122.359383,35.036702 L111.81163,35.036702 Z" id="Fill-225" fill="#E6E7E9" mask="url(#mask-2)"></path>
                <path d="M111.81163,35.036702 L122.359383,35.036702 L109.794306,18.06817 L102.297795,18.06817 L111.81163,35.036702 Z" id="Fill-226" fill="#FDFDFD" mask="url(#mask-2)"></path>
                <path d="M100.726884,40.525933 L100.726884,40.525933 L98.8222963,40.525933 L98.8222963,34.2635456 L100.726884,34.2635456 L100.726884,40.525933 Z" id="Fill-227" fill="#35445F" mask="url(#mask-2)"></path>
                <path d="M100.726884,56.9629973 L100.726884,56.9629973 L98.8222963,56.9629973 L98.8222963,46.3965471 L100.726884,46.3965471 L100.726884,56.9629973 Z" id="Fill-228" fill="#35445F" mask="url(#mask-2)"></path>
                <path d="M100.726884,69.4884446 L100.726884,69.4884446 L98.8222963,69.4884446 L98.8222963,59.4107079 L100.726884,59.4107079 L100.726884,69.4884446 Z" id="Fill-229" fill="#35445F" mask="url(#mask-2)"></path>
                <path d="M168.785564,148.655347 C168.785564,154.251583 164.206965,158.832432 158.613308,158.832432 L109.713418,158.832432 C104.119544,158.832432 99.5411618,154.251583 99.5411618,148.655347 L99.5411618,25.8808834 C99.5411618,20.2839966 104.119544,15.7044495 109.713418,15.7044495 L158.613308,15.7044495 C164.206965,15.7044495 168.785564,20.2839966 168.785564,25.8808834 L168.785564,148.655347 Z" id="Fill-230" fill="#35445F" mask="url(#mask-2)"></path>
                <path d="M109.713504,157.396421 C104.895558,157.396421 100.975814,153.473915 100.975814,148.655326 L100.975814,25.8808617 C100.975814,21.0611877 104.895558,17.1391154 109.713504,17.1391154 L158.613395,17.1391154 C163.432425,17.1391154 167.350868,21.0611877 167.350868,25.8808617 L167.350868,148.655326 C167.350868,153.473915 163.432425,157.396421 158.613395,157.396421 L109.713504,157.396421 Z" id="Fill-231" fill="#35445F" mask="url(#mask-2)"></path>
                <path d="M104.039068,141.217379 L164.287788,141.217379 L164.287788,33.7724243 L104.039068,33.7724243 L104.039068,141.217379 Z" id="Fill-232" fill="#FFFFFF" mask="url(#mask-2)"></path>
                <path d="M102.883871,33.7725978 L110.191115,33.7725978 L100.539612,50.7411299 L90.1984693,50.7411299 L102.883871,33.7725978 Z" id="Fill-233" fill="#13C6A4" mask="url(#mask-2)"></path>
                <path d="M110.191137,33.7725978 C110.536282,33.8413604 117.982061,33.7725978 117.982061,33.7725978 L111.708303,50.7411299 L100.539634,50.7411299 L110.191137,33.7725978 Z" id="Fill-234" fill="#FDFDFD" mask="url(#mask-2)"></path>
                <path d="M117.981975,33.7725978 L125.841408,33.7725978 L122.462797,50.7411299 L111.708433,50.7411299 L117.981975,33.7725978 Z" id="Fill-235" fill="#13C6A4" mask="url(#mask-2)"></path>
                <path d="M125.841387,33.7725978 L133.424834,33.7725978 L133.424834,50.7411299 L122.462775,50.7411299 L125.841387,33.7725978 Z" id="Fill-236" fill="#FDFDFD" mask="url(#mask-2)"></path>
                <path d="M133.424725,33.7725978 L141.145624,33.7725978 L144.385917,50.7411299 L133.424725,50.7411299 L133.424725,33.7725978 Z" id="Fill-237" fill="#13C6A4" mask="url(#mask-2)"></path>
                <path d="M141.145689,33.7725978 L148.798078,33.7725978 L154.934169,50.7411299 L144.385765,50.7411299 L141.145689,33.7725978 Z" id="Fill-238" fill="#FDFDFD" mask="url(#mask-2)"></path>
                <path d="M148.798057,33.7725978 L156.588982,33.7725978 L166.102599,50.7411299 L154.934147,50.7411299 L148.798057,33.7725978 Z" id="Fill-239" fill="#13C6A4" mask="url(#mask-2)"></path>
                <path d="M90.1985343,50.7411516 L90.1985343,53.9834067 C90.1985343,53.9834067 91.7152671,55.8458542 95.5762583,55.8458542 C99.4365991,55.8458542 100.12559,54.2591079 100.539678,53.8454476 L100.539678,50.7411516 L90.1985343,50.7411516 Z" id="Fill-240" fill="#13B6A4" mask="url(#mask-2)"></path>
                <path d="M111.708325,50.7411516 L111.708325,53.9834067 C111.708325,53.9834067 113.269935,55.8458542 117.246914,55.8458542 C121.222593,55.8458542 121.93348,54.2591079 122.359492,53.8454476 L122.359492,50.7411516 L111.708325,50.7411516 Z" id="Fill-241" fill="#13B6A4" mask="url(#mask-2)"></path>
                <path d="M133.424725,50.7411516 L133.424725,53.9834067 C133.424725,53.9834067 135.031213,55.8458542 139.125048,55.8458542 C143.216714,55.8458542 143.947981,54.2591079 144.385917,53.8454476 L144.385917,50.7411516 L133.424725,50.7411516 Z" id="Fill-242" fill="#13B6A4" mask="url(#mask-2)"></path>
                <path d="M154.934082,50.7411516 L154.934082,53.9834067 C154.934082,53.9834067 156.571572,55.8458542 160.742371,55.8458542 C164.911435,55.8458542 165.65636,54.2591079 166.102751,53.8454476 L166.102751,50.7411516 L154.934082,50.7411516 Z" id="Fill-243" fill="#13B6A4" mask="url(#mask-2)"></path>
                <path d="M100.539721,50.7411516 L100.539721,53.9834067 C100.539721,53.9834067 102.178078,55.8458542 106.346709,55.8458542 C110.516857,55.8458542 111.260698,54.2591079 111.70839,53.8454476 L111.70839,50.7411516 L100.539721,50.7411516 Z" id="Fill-244" fill="#E6E7E9" mask="url(#mask-2)"></path>
                <path d="M122.35947,50.7411516 L122.35947,53.9834067 C122.35947,53.9834067 123.997828,55.8458542 128.166458,55.8458542 C132.336606,55.8458542 132.977684,54.2591079 133.424725,53.8454476 L133.424725,50.7411516 L122.35947,50.7411516 Z" id="Fill-245" fill="#E6E7E9" mask="url(#mask-2)"></path>
                <path d="M144.38583,50.7411516 L144.38583,53.9834067 C144.38583,53.9834067 145.933999,55.8458542 149.870653,55.8458542 C153.809475,55.8458542 154.511907,54.2591079 154.934017,53.8454476 L154.934017,50.7411516 L144.38583,50.7411516 Z" id="Fill-246" fill="#E6E7E9" mask="url(#mask-2)"></path>
                <path d="M166.102664,50.7411516 L166.102664,53.9834067 C166.102664,53.9834067 167.649532,55.8458542 171.587054,55.8458542 C175.525009,55.8458542 176.228308,54.2591079 176.650418,53.8454476 L176.650418,50.7411516 L166.102664,50.7411516 Z" id="Fill-247" fill="#E6E7E9" mask="url(#mask-2)"></path>
                <path d="M166.102664,50.7411516 L176.650418,50.7411516 L164.08534,33.7726195 L156.58883,33.7726195 L166.102664,50.7411516 Z" id="Fill-248" fill="#FDFDFD" mask="url(#mask-2)"></path>
                <g mask="url(#mask-2)">
                    <g transform="translate(118.000000, 80.000000)">
                        <g id="Group-3" stroke-width="1" fill="none" transform="translate(10.603636, 0.030066)">
                            <mask id="mask-4" fill="white">
                                <use xlink:href="#path-3"></use>
                            </mask>
                            <g id="Clip-2"></g>
                            <path d="M9.99987709,0.0866383132 L14.8716589,0.0866383132 C14.9087716,0.0866383132 14.9087716,0.123925499 14.9087716,0.123925499 C14.9087716,0.161212684 14.8716589,0.161212684 14.8716589,0.161212684 C9.88853891,0.83356574 5.94634255,7.8210659 5.94634255,16.3775872 C5.94634255,24.9341084 9.88853891,31.9210167 14.8716589,32.5939616 C14.9087716,32.5939616 14.9087716,32.6312488 14.9087716,32.6312488 C14.9087716,32.6691279 14.8716589,32.6691279 14.8716589,32.6691279 L9.99987709,32.6691279 C4.64445164,32.6691279 0.292837091,25.3827383 0.292837091,16.4148743 C0.292837091,7.37302782 4.64445164,0.0866383132 9.99987709,0.0866383132" id="Fill-1" fill="#13C6A4" mask="url(#mask-4)"></path>
                        </g>
                        <g id="Group-6" stroke-width="1" fill="none" transform="translate(0.000000, 0.030066)">
                            <mask id="mask-6" fill="white">
                                <use xlink:href="#path-5"></use>
                            </mask>
                            <g id="Clip-5"></g>
                            <path d="M9.70674545,0.0866383132 L14.5785273,0.0866383132 C14.61564,0.0866383132 14.61564,0.123925499 14.61564,0.123925499 C14.61564,0.161212684 14.5785273,0.161212684 14.5785273,0.161212684 C9.59540727,0.83356574 5.65321091,7.8210659 5.65321091,16.3775872 C5.65321091,24.9341084 9.59540727,31.9210167 14.5785273,32.5939616 C14.61564,32.5939616 14.61564,32.6312488 14.61564,32.6312488 C14.61564,32.6691279 14.5785273,32.6691279 14.5785273,32.6691279 L9.70674545,32.6691279 C4.35132,32.6691279 -0.000294545454,25.3827383 -0.000294545454,16.4148743 C-0.000294545454,7.37302782 4.35132,0.0866383132 9.70674545,0.0866383132" id="Fill-4" fill="#13C6A4" mask="url(#mask-6)"></path>
                        </g>
                        <path d="M27.2233047,4.18923486 C28.8662793,4.18923486 30.1982138,6.01275579 30.1982138,8.26182411 C30.1982138,10.5114843 28.8662793,12.3350052 27.2233047,12.3350052 C25.5797411,12.3350052 24.2478065,10.5114843 24.2478065,8.26182411 C24.2478065,6.01275579 25.5797411,4.18923486 27.2233047,4.18923486" id="Fill-7" fill="#13C6A4"></path>
                        <path d="M27.2233047,20.4434292 C28.8662793,20.4434292 30.1982138,22.2663583 30.1982138,24.5160184 C30.1982138,26.7656786 28.8662793,28.5886077 27.2233047,28.5886077 C25.5797411,28.5886077 24.2478065,26.7656786 24.2478065,24.5160184 C24.2478065,22.2663583 25.5797411,20.4434292 27.2233047,20.4434292" id="Fill-9" fill="#13C6A4"></path>
                    </g>
                </g>
                <g id="Page-1-Copy" mask="url(#mask-2)">
                    <g transform="translate(61.000000, 63.000000)">
                        <g id="Group-3" stroke-width="1" fill="none" transform="translate(10.603636, 0.030066)">
                            <mask id="mask-8" fill="white">
                                <use xlink:href="#path-7"></use>
                            </mask>
                            <g id="Clip-2"></g>
                            <path d="M9.99987709,0.0866383132 L14.8716589,0.0866383132 C14.9087716,0.0866383132 14.9087716,0.123925499 14.9087716,0.123925499 C14.9087716,0.161212684 14.8716589,0.161212684 14.8716589,0.161212684 C9.88853891,0.83356574 5.94634255,7.8210659 5.94634255,16.3775872 C5.94634255,24.9341084 9.88853891,31.9210167 14.8716589,32.5939616 C14.9087716,32.5939616 14.9087716,32.6312488 14.9087716,32.6312488 C14.9087716,32.6691279 14.8716589,32.6691279 14.8716589,32.6691279 L9.99987709,32.6691279 C4.64445164,32.6691279 0.292837091,25.3827383 0.292837091,16.4148743 C0.292837091,7.37302782 4.64445164,0.0866383132 9.99987709,0.0866383132" id="Fill-1" fill="#13C6A4" mask="url(#mask-8)"></path>
                        </g>
                        <g id="Group-6" stroke-width="1" fill="none" transform="translate(0.000000, 0.030066)">
                            <mask id="mask-10" fill="white">
                                <use xlink:href="#path-9"></use>
                            </mask>
                            <g id="Clip-5"></g>
                            <path d="M9.70674545,0.0866383132 L14.5785273,0.0866383132 C14.61564,0.0866383132 14.61564,0.123925499 14.61564,0.123925499 C14.61564,0.161212684 14.5785273,0.161212684 14.5785273,0.161212684 C9.59540727,0.83356574 5.65321091,7.8210659 5.65321091,16.3775872 C5.65321091,24.9341084 9.59540727,31.9210167 14.5785273,32.5939616 C14.61564,32.5939616 14.61564,32.6312488 14.61564,32.6312488 C14.61564,32.6691279 14.5785273,32.6691279 14.5785273,32.6691279 L9.70674545,32.6691279 C4.35132,32.6691279 -0.000294545454,25.3827383 -0.000294545454,16.4148743 C-0.000294545454,7.37302782 4.35132,0.0866383132 9.70674545,0.0866383132" id="Fill-4" fill="#13C6A4" mask="url(#mask-10)"></path>
                        </g>
                        <path d="M27.2233047,4.18923486 C28.8662793,4.18923486 30.1982138,6.01275579 30.1982138,8.26182411 C30.1982138,10.5114843 28.8662793,12.3350052 27.2233047,12.3350052 C25.5797411,12.3350052 24.2478065,10.5114843 24.2478065,8.26182411 C24.2478065,6.01275579 25.5797411,4.18923486 27.2233047,4.18923486" id="Fill-7" fill="#13C6A4"></path>
                        <path d="M27.2233047,20.4434292 C28.8662793,20.4434292 30.1982138,22.2663583 30.1982138,24.5160184 C30.1982138,26.7656786 28.8662793,28.5886077 27.2233047,28.5886077 C25.5797411,28.5886077 24.2478065,26.7656786 24.2478065,24.5160184 C24.2478065,22.2663583 25.5797411,20.4434292 27.2233047,20.4434292" id="Fill-9" fill="#13C6A4"></path>
                    </g>
                </g>
                <g id="Page-1-Copy-11" mask="url(#mask-2)">
                    <g transform="translate(177.000000, 63.000000)">
                        <g id="Group-3" stroke-width="1" fill="none" transform="translate(10.603636, 0.030066)">
                            <mask id="mask-12" fill="white">
                                <use xlink:href="#path-11"></use>
                            </mask>
                            <g id="Clip-2"></g>
                            <path d="M9.99987709,0.0866383132 L14.8716589,0.0866383132 C14.9087716,0.0866383132 14.9087716,0.123925499 14.9087716,0.123925499 C14.9087716,0.161212684 14.8716589,0.161212684 14.8716589,0.161212684 C9.88853891,0.83356574 5.94634255,7.8210659 5.94634255,16.3775872 C5.94634255,24.9341084 9.88853891,31.9210167 14.8716589,32.5939616 C14.9087716,32.5939616 14.9087716,32.6312488 14.9087716,32.6312488 C14.9087716,32.6691279 14.8716589,32.6691279 14.8716589,32.6691279 L9.99987709,32.6691279 C4.64445164,32.6691279 0.292837091,25.3827383 0.292837091,16.4148743 C0.292837091,7.37302782 4.64445164,0.0866383132 9.99987709,0.0866383132" id="Fill-1" fill="#13C6A4" mask="url(#mask-12)"></path>
                        </g>
                        <g id="Group-6" stroke-width="1" fill="none" transform="translate(0.000000, 0.030066)">
                            <mask id="mask-14" fill="white">
                                <use xlink:href="#path-13"></use>
                            </mask>
                            <g id="Clip-5"></g>
                            <path d="M9.70674545,0.0866383132 L14.5785273,0.0866383132 C14.61564,0.0866383132 14.61564,0.123925499 14.61564,0.123925499 C14.61564,0.161212684 14.5785273,0.161212684 14.5785273,0.161212684 C9.59540727,0.83356574 5.65321091,7.8210659 5.65321091,16.3775872 C5.65321091,24.9341084 9.59540727,31.9210167 14.5785273,32.5939616 C14.61564,32.5939616 14.61564,32.6312488 14.61564,32.6312488 C14.61564,32.6691279 14.5785273,32.6691279 14.5785273,32.6691279 L9.70674545,32.6691279 C4.35132,32.6691279 -0.000294545454,25.3827383 -0.000294545454,16.4148743 C-0.000294545454,7.37302782 4.35132,0.0866383132 9.70674545,0.0866383132" id="Fill-4" fill="#13C6A4" mask="url(#mask-14)"></path>
                        </g>
                        <path d="M27.2233047,4.18923486 C28.8662793,4.18923486 30.1982138,6.01275579 30.1982138,8.26182411 C30.1982138,10.5114843 28.8662793,12.3350052 27.2233047,12.3350052 C25.5797411,12.3350052 24.2478065,10.5114843 24.2478065,8.26182411 C24.2478065,6.01275579 25.5797411,4.18923486 27.2233047,4.18923486" id="Fill-7" fill="#13C6A4"></path>
                        <path d="M27.2233047,20.4434292 C28.8662793,20.4434292 30.1982138,22.2663583 30.1982138,24.5160184 C30.1982138,26.7656786 28.8662793,28.5886077 27.2233047,28.5886077 C25.5797411,28.5886077 24.2478065,26.7656786 24.2478065,24.5160184 C24.2478065,22.2663583 25.5797411,20.4434292 27.2233047,20.4434292" id="Fill-9" fill="#13C6A4"></path>
                    </g>
                </g>
            </g>
        </g>
    </g>
</svg>