<?xml version="1.0" encoding="UTF-8"?>
<svg width="22px" height="19px" viewBox="0 0 22 19" version="1.1" xmlns="http://www.w3.org/2000/svg" xmlns:xlink="http://www.w3.org/1999/xlink">
    <!-- Generator: Sketch 3.6 (26304) - http://www.bohemiancoding.com/sketch -->
    <title>Page 1 Copy</title>
    <desc>Created with Sketch.</desc>
    <defs></defs>
    <g id="Page-1" stroke="none" stroke-width="1" fill="none" fill-rule="evenodd">
        <g id="Pagar-orden---escaneo-Copy-6" transform="translate(-44.000000, -329.000000)" fill="#35445F">
            <path d="M56.3257513,338.88232 C55.6186224,338.88232 54.6000375,338.338087 53.8825919,337.828767 C53.6246742,337.645673 53.3906478,337.457909 53.1869743,337.270579 L52.9901967,337.089657 L52.8062335,337.283611 C52.5523338,337.551302 52.2359367,337.757473 51.8911415,337.879754 L51.7103819,337.943826 L51.7103819,338.135608 L51.7103819,346.104016 L51.7103819,346.375508 L51.9818742,346.375508 L63.7737087,346.375508 C64.3425937,346.375508 64.8053795,345.912723 64.8053795,345.343838 L64.8053795,336.547486 L64.8053795,336.275994 L64.5338872,336.275994 L58.4305769,336.275994 L58.1968221,336.275994 L58.162071,336.507088 C58.1044604,336.890327 58.0118272,337.253529 57.8941624,337.557384 C57.6938011,338.074902 57.4185079,338.447281 57.0759389,338.664095 C56.7909805,338.844474 56.5106919,338.88232 56.3257513,338.88232 M51.1130988,336.818979 C51.741875,336.818979 52.2533665,336.307487 52.2533665,335.678711 C52.2533665,335.049935 51.741875,334.538443 51.1130988,334.538443 C50.4843226,334.538443 49.972831,335.049935 49.972831,335.678711 C49.972831,336.307487 50.4843226,336.818979 51.1130988,336.818979 M56.3845565,337.695519 L56.4691535,337.631121 C56.7740394,337.399104 57.0316313,336.505025 57.0316313,335.678711 C57.0316313,334.852288 56.7739851,333.958156 56.4690449,333.726301 L56.3845022,333.661958 L56.2787288,333.672166 C55.9995261,333.699043 55.3675463,333.962988 54.700001,334.415457 C54.0080757,334.884433 53.6247828,335.309916 53.4968013,335.551816 L53.4296341,335.678765 L53.4968013,335.805715 C53.6247828,336.047561 54.0080757,336.473098 54.700001,336.942073 C55.3674377,337.394488 55.9993632,337.658379 56.2786745,337.685311 L56.3845565,337.695519 M45.8416953,337.695519 L45.9474687,337.685311 C46.2266714,337.658433 46.8585969,337.394543 47.5261965,336.942019 C48.2181219,336.473043 48.6014147,336.047506 48.7293962,335.805661 L48.7965634,335.678711 L48.7293962,335.551761 C48.6014147,335.309916 48.2181219,334.884379 47.5261965,334.415349 C46.8587598,333.962934 46.2268343,333.699043 45.947523,333.672111 L45.841641,333.661903 L45.757044,333.726301 C45.4521581,333.958319 45.1945662,334.852397 45.1945662,335.678711 C45.1945662,336.505079 45.4521581,337.399212 45.7570983,337.631175 L45.8416953,337.695519 M52.9901424,334.267765 L53.18692,334.086843 C53.3903763,333.89973 53.624457,333.711912 53.8825376,333.528655 C54.6000918,333.019335 55.618731,332.475102 56.3257513,332.475102 C56.5106919,332.475102 56.7909805,332.512948 57.0759389,332.693327 C57.4185079,332.910141 57.6938011,333.28252 57.8941624,333.800039 C58.0118272,334.103893 58.1044604,334.467095 58.162071,334.850334 L58.1968221,335.081428 L58.4305769,335.081428 L64.5338872,335.081428 L64.8053795,335.081428 L64.8053795,334.809936 L64.8053795,331.226237 C64.8053795,330.657352 64.3425937,330.194566 63.7737087,330.194566 L51.9818199,330.194566 L51.7103276,330.194566 L51.7103276,330.466059 L51.7103276,333.221814 L51.7103276,333.413596 L51.8910872,333.477669 C52.2358281,333.599949 52.5522795,333.80612 52.8061792,334.073811 L52.9901424,334.267765 M63.7737087,329 C65.0012341,329 65.9999457,329.998712 66,331.226237 L66,345.343838 C66,346.571363 65.0012884,347.570075 63.773763,347.570075 L49.2670053,347.570075 C48.0394799,347.570075 47.0407683,346.571363 47.0407683,345.343838 L47.0407683,340.891364 C47.0407683,340.562043 47.3087312,340.29408 47.6380514,340.29408 C47.9673716,340.29408 48.2353345,340.562043 48.2353345,340.891364 L48.2353345,345.343838 C48.2353345,345.912723 48.6981203,346.375508 49.2670053,346.375508 L50.2443776,346.375508 L50.51587,346.375508 L50.51587,346.104016 L50.51587,338.135608 L50.51587,337.943826 L50.3351104,337.879754 C49.9903151,337.757473 49.673918,337.551302 49.4200184,337.283611 L49.2360552,337.089657 L49.0392775,337.270579 C48.8357669,337.457692 48.6017405,337.64551 48.3436599,337.828767 C47.6261057,338.338087 46.6074665,338.88232 45.9004462,338.88232 C45.7155057,338.88232 45.435217,338.844474 45.1502587,338.664095 C44.8076896,338.447281 44.5323964,338.074902 44.3320351,337.557329 C44.1241263,337.020426 44,336.31813 44,335.678711 C44,335.039292 44.1241263,334.336996 44.3320351,333.800039 C44.5323964,333.28252 44.8076896,332.910141 45.1502587,332.693327 C45.435217,332.512948 45.7155057,332.475102 45.9004462,332.475102 C46.6075751,332.475102 47.62616,333.019335 48.3436056,333.528655 C48.6015233,333.711749 48.8355497,333.899513 49.0392232,334.086843 L49.2360009,334.267765 L49.4199641,334.073811 C49.6738637,333.80612 49.9902608,333.599949 50.3350561,333.477669 L50.5158157,333.413596 L50.5158157,333.221814 L50.5158157,330.466059 L50.5158157,330.194566 L50.2443233,330.194566 L49.266951,330.194566 C48.8831695,330.194566 48.5336502,330.405353 48.3547368,330.744664 C48.2510267,330.941333 48.0482763,331.063505 47.8256526,331.063505 C47.7282954,331.063505 47.6347935,331.040265 47.5478073,330.994383 C47.4066856,330.919939 47.3030299,330.795053 47.2557902,330.642637 C47.2086591,330.490221 47.2236455,330.328575 47.2980887,330.187453 C47.6843137,329.455021 48.4387365,329 49.266951,329 L63.7737087,329" id="Page-1-Copy"></path>
        </g>
    </g>
</svg>