<?xml version="1.0" encoding="UTF-8"?>
<svg width="23px" height="18px" viewBox="0 0 23 18" version="1.1" xmlns="http://www.w3.org/2000/svg" xmlns:xlink="http://www.w3.org/1999/xlink">
    <!-- Generator: Sketch 3.6 (26304) - http://www.bohemiancoding.com/sketch -->
    <title>Page 1</title>
    <desc>Created with Sketch.</desc>
    <defs></defs>
    <g id="Page-1" stroke="none" stroke-width="1" fill="none" fill-rule="evenodd">
        <g id="1.-Mis-Billeteras-Copy-5" transform="translate(-44.000000, -48.000000)" fill="#14c6a4">
            <g id="Page-1" transform="translate(44.000000, 48.000000)">
                <path d="M22.0709308,7.7060668 L0.929072063,7.7060668 C0.415985188,7.7060668 1.43750003e-06,8.15994322 1.43750003e-06,8.7199082 C1.43750003e-06,9.27987318 0.415985188,9.7337496 0.929072063,9.7337496 L22.0709308,9.7337496 C22.5840608,9.7337496 23.0000014,9.27987318 23.0000014,8.7199082 C23.0000014,8.15999028 22.5840464,7.7060668 22.0709308,7.7060668" id="Fill-1"></path>
                <path d="M22.0709308,0.0157509268 L0.929072063,0.0157509268 C0.415985188,0.0157509268 1.43750003e-06,0.469674408 1.43750003e-06,1.02959232 C1.43750003e-06,1.58951024 0.415985188,2.04344941 0.929072063,2.04344941 L22.0709308,2.04344941 C22.5840608,2.04344941 23.0000014,1.58951024 23.0000014,1.02959232 C23.0000014,0.469674408 22.5840464,0.0157509268 22.0709308,0.0157509268" id="Fill-4"></path>
                <path d="M22.0709308,15.396367 L0.929072063,15.396367 C0.415985188,15.396367 1.43750003e-06,15.8502591 1.43750003e-06,16.4102241 C1.43750003e-06,16.9701734 0.415985188,17.4240655 0.929072063,17.4240655 L22.0709308,17.4240655 C22.5840608,17.4240655 23.0000014,16.9701734 23.0000014,16.4102241 C23.0000014,15.8502591 22.5840464,15.396367 22.0709308,15.396367" id="Fill-7"></path>
            </g>
        </g>
    </g>
</svg>