<?xml version="1.0" encoding="UTF-8"?>
<svg width="21px" height="19px" viewBox="0 0 21 19" version="1.1" xmlns="http://www.w3.org/2000/svg" xmlns:xlink="http://www.w3.org/1999/xlink">
    <!-- Generator: Sketch 3.6 (26304) - http://www.bohemiancoding.com/sketch -->
    <title>001-home</title>
    <desc>Created with Sketch.</desc>
    <defs></defs>
    <g id="Page-1" stroke="none" stroke-width="1" fill="none" fill-rule="evenodd">
        <g id="1.-Mis-Billeteras-1.1" transform="translate(-45.000000, -167.000000)" stroke-width="0.3" stroke="#14C6A4" fill="#14C6A4">
            <g id="001-home" transform="translate(46.000000, 168.000000)">
                <g id="Capa_1">
                    <path d="M18.6808965,7.55538525 L17.0758047,6.18246107 L17.0758047,1.62997951 C17.0758047,1.34031762 16.8256504,1.10545287 16.5170488,1.10545287 L12.6534063,1.10545287 C12.3448418,1.10545287 12.0946504,1.34028279 12.0946504,1.62997951 L12.0946504,1.92169672 L10.1562051,0.263604508 C9.78203125,-0.0565040984 9.2177832,-0.0564692623 8.84375781,0.263569672 L0.319066406,7.55542008 C0.0193710938,7.81181352 -0.0796738281,8.20685451 0.0667597656,8.56179918 C0.213230469,8.91674385 0.569851563,9.14606967 0.975345703,9.14606967 L2.33685156,9.14606967 L2.33685156,16.4519242 C2.33685156,16.7415861 2.58700586,16.9764508 2.89560742,16.9764508 L7.56816016,16.9764508 C7.87672461,16.9764508 8.12691602,16.7416209 8.12691602,16.4519242 L8.12691602,12.0160389 L10.8730469,12.0160389 L10.8730469,16.451959 C10.8730469,16.7416209 11.1232012,16.9764857 11.4318027,16.9764857 L16.1041699,16.9764857 C16.4127344,16.9764857 16.6629258,16.7416557 16.6628887,16.451959 L16.6628887,9.14610451 L18.0246914,9.14610451 C18.4301484,9.14610451 18.7868066,8.91674385 18.9332773,8.56183402 C19.0796738,8.20685451 18.980666,7.81181352 18.6808965,7.55538525 L18.6808965,7.55538525 Z M16.1041699,8.09705123 C15.7956055,8.09705123 15.5454141,8.33188115 15.5454141,8.62157787 L15.5454141,15.9274324 L11.9905957,15.9274324 L11.9905957,11.4915123 C11.9905957,11.2018504 11.7404043,10.9669857 11.4318398,10.9669857 L7.56816016,10.9669857 C7.2595957,10.9669857 7.0094043,11.2018156 7.0094043,11.4915123 L7.0094043,15.9274324 L3.45432617,15.9274324 L3.45432617,8.62157787 C3.45432617,8.33191598 3.20417187,8.09705123 2.89557031,8.09705123 L1.3450293,8.09705123 L9.50003711,1.12147746 L12.2771543,3.49698361 C12.4407324,3.63688525 12.6768594,3.67294057 12.8792168,3.58909016 C13.0816113,3.50513525 13.2121992,3.31695082 13.2121992,3.1092582 L13.2121992,2.15450615 L15.9583672,2.15450615 L15.9583672,6.4141209 C15.9583672,6.56172131 16.0245703,6.70242418 16.1407969,6.80184631 L17.6549707,8.09705123 L16.1041699,8.09705123 L16.1041699,8.09705123 Z" id="Shape"></path>
                </g>
            </g>
        </g>
    </g>
</svg>