<?xml version="1.0" encoding="UTF-8"?>
<svg width="19px" height="20px" viewBox="0 0 19 20" version="1.1" xmlns="http://www.w3.org/2000/svg" xmlns:xlink="http://www.w3.org/1999/xlink">
    <!-- Generator: Sketch 3.6 (26304) - http://www.bohemiancoding.com/sketch -->
    <title>Page 1</title>
    <desc>Created with Sketch.</desc>
    <defs></defs>
    <g id="Page-1" stroke="none" stroke-width="1" fill="none" fill-rule="evenodd">
        <g id="Pagar-orden---escaneo-Copy-7" transform="translate(-46.000000, -194.000000)" fill="#35445F">
            <g id="Page-1" transform="translate(46.000000, 194.000000)">
                <g id="Group-3" transform="translate(0.000000, 0.048154)">
                    <path d="M0.992167102,7.42140298 L1.24020888,7.42140298 L7.09746736,7.42140298 L7.34550914,7.42140298 L7.34550914,7.17086257 L7.34550914,1.25465129 L7.34550914,1.00411087 L7.09746736,1.00411087 L1.24020888,1.00411087 L0.992167102,1.00411087 L0.992167102,1.25465129 L0.992167102,7.17086257 L0.992167102,7.42140298 M7.84159269,0.00194920444 C8.11513316,0.00194920444 8.33767624,0.226734066 8.33767624,0.503030037 L8.33767624,7.92248382 C8.33767624,8.19877979 8.11513316,8.42356465 7.84159269,8.42356465 L0.496083551,8.42356465 C0.222543081,8.42356465 0,8.19877979 0,7.92248382 L0,0.503030037 C0,0.226734066 0.222543081,0.00194920444 0.496083551,0.00194920444 L7.84159269,0.00194920444" id="Fill-1"></path>
                </g>
                <path d="M5.44960183,2.98067432 C5.58210574,2.98067432 5.70672193,3.03278673 5.80038251,3.1274409 C5.89404308,3.22204496 5.94568538,3.34791646 5.94568538,3.48175515 C5.94568538,3.61559384 5.89409269,3.74141524 5.80038251,3.8360193 L4.25756266,5.39438069 C4.16385248,5.48903486 4.03923629,5.54119738 3.90673238,5.54119738 C3.77427807,5.54119738 3.64971149,5.48903486 3.55600131,5.39438069 L2.53719452,4.36536109 C2.34377154,4.16998968 2.34377154,3.85215411 2.53719452,3.65678269 C2.6309047,3.56212852 2.75547128,3.50996601 2.8879752,3.50996601 C3.02047911,3.50996601 3.14504569,3.56212852 3.23875587,3.65678269 L3.73136684,4.15435596 L3.90673238,4.33148803 L4.08214752,4.15435596 L5.09882115,3.1274409 C5.19253133,3.03278673 5.31709791,2.98067432 5.44960183,2.98067432" id="Fill-4"></path>
                <path d="M0.992167102,18.18728 L1.24020888,18.18728 L7.09746736,18.18728 L7.34550914,18.18728 L7.34550914,17.9367396 L7.34550914,12.0205784 L7.34550914,11.770038 L7.09746736,11.770038 L1.24020888,11.770038 L0.992167102,11.770038 L0.992167102,12.0205784 L0.992167102,17.9367396 L0.992167102,18.18728 M7.84159269,10.7678763 C8.11513316,10.7678763 8.33767624,10.9926612 8.33767624,11.2689572 L8.33767624,18.6883608 C8.33767624,18.9646568 8.11513316,19.1894417 7.84159269,19.1894417 L0.496083551,19.1894417 C0.222543081,19.1894417 0,18.9646568 0,18.6883608 L0,11.2689572 C0,10.9926612 0.222543081,10.7678763 0.496083551,10.7678763 L7.84159269,10.7678763" id="Fill-6"></path>
                <path d="M5.44965144,13.6983975 C5.58215535,13.6983975 5.70672193,13.7505099 5.80038251,13.8451139 C5.89404308,13.9397681 5.94568538,14.0655895 5.94568538,14.1994783 C5.94568538,14.333317 5.89409269,14.4591384 5.80038251,14.5537425 L4.25756266,16.112154 C4.16390209,16.2068081 4.0392859,16.2589205 3.90678198,16.2589205 C3.77427807,16.2589205 3.64971149,16.206758 3.55600131,16.112154 L2.53719452,15.0831344 C2.34382115,14.8877128 2.34382115,14.5698773 2.53719452,14.3745058 C2.6309047,14.2798517 2.75547128,14.2277393 2.8879752,14.2277393 C3.02047911,14.2277393 3.14504569,14.2798517 3.23875587,14.3744557 L3.73136684,14.872029 L3.90673238,15.0492112 L4.08214752,14.872029 L5.09877154,13.8451641 C5.19253133,13.7505099 5.31714752,13.6983975 5.44965144,13.6983975" id="Fill-8"></path>
                <path d="M18.4543081,2.25662755 C18.7278486,2.25662755 18.9503916,2.48141241 18.9503916,2.75770838 C18.9503916,3.03400435 18.7278486,3.25878922 18.4543081,3.25878922 L10.818094,3.25878922 C10.5446031,3.25878922 10.3220104,3.03400435 10.3220104,2.75770838 C10.3220104,2.48141241 10.5446031,2.25662755 10.818094,2.25662755 L18.4543081,2.25662755" id="Fill-10"></path>
                <path d="M18.471165,5.26311255 C18.7267473,5.26311255 18.9389222,5.45637942 18.9646689,5.71243173 C18.9663556,5.7296188 18.9672486,5.74700631 18.9672486,5.76419338 C18.9672486,6.04048935 18.7447055,6.26527421 18.471165,6.26527421 L16.0685828,6.26527421 L10.8180841,6.26527421 C10.5445932,6.26527421 10.3220005,6.04048935 10.3220005,5.76419338 C10.3220005,5.48789741 10.5445932,5.26311255 10.8180841,5.26311255 L16.0685828,5.26311255 L18.471165,5.26311255" id="Fill-12"></path>
                <path d="M18.471165,15.9808106 C18.7447055,15.9808106 18.9672486,16.2055955 18.9672486,16.4818915 C18.9672486,16.7581875 18.7447055,16.9829723 18.471165,16.9829723 L14.5803321,16.9829723 L12.5160292,16.9829723 L10.8180841,16.9829723 C10.5445932,16.9829723 10.3220005,16.7581875 10.3220005,16.4818915 C10.3220005,16.2055955 10.5445932,15.9808106 10.8180841,15.9808106 L12.5160292,15.9808106 L14.5803321,15.9808106 L18.471165,15.9808106" id="Fill-14"></path>
                <path d="M18.471165,12.9743257 C18.7447055,12.9743257 18.9672486,13.1991105 18.9672486,13.4754065 C18.9672486,13.7517025 18.7447055,13.9764873 18.471165,13.9764873 L14.6361911,13.9764873 L14.5803321,13.9764873 L10.8180841,13.9764873 C10.5445932,13.9764873 10.3220005,13.7517025 10.3220005,13.4754065 C10.3220005,13.1991105 10.5445932,12.9743257 10.8180841,12.9743257 L14.5803321,12.9743257 L14.6361911,12.9743257 L18.471165,12.9743257" id="Fill-16"></path>
            </g>
        </g>
    </g>
</svg>