<?xml version="1.0" encoding="UTF-8"?>
<svg width="16px" height="18px" viewBox="0 0 16 18" version="1.1" xmlns="http://www.w3.org/2000/svg" xmlns:xlink="http://www.w3.org/1999/xlink">
    <!-- Generator: Sketch 3.6 (26304) - http://www.bohemiancoding.com/sketch -->
    <title>Page 1</title>
    <desc>Created with Sketch.</desc>
    <defs></defs>
    <g id="Page-1" stroke="none" stroke-width="1" fill="none" fill-rule="evenodd">
        <g id="1.-Mis-Billeteras-1.1" transform="translate(-48.000000, -239.000000)" fill="#35445F">
            <g id="Page-1" transform="translate(48.000000, 239.000000)">
                <path d="M10.2857184,9.90765736 C9.9701024,9.90765736 9.7142624,10.1677035 9.7142624,10.4885485 C9.7142624,11.450986 8.9467424,12.2312221 7.9999904,12.2312221 C7.0532064,12.2312221 6.2857184,11.450986 6.2857184,10.4885485 C6.2857184,10.1677035 6.0298464,9.90765736 5.7142624,9.90765736 C5.3986464,9.90765736 5.1428384,10.1677035 5.1428384,10.4885485 C5.1428384,12.0926435 6.4220064,13.3930369 7.9999584,13.3930369 C9.5778784,13.3930369 10.8570784,12.0926435 10.8570784,10.4885485 C10.8571424,10.1677035 10.6013024,9.90765736 10.2857184,9.90765736" id="Fill-1"></path>
                <g id="Group-5" transform="translate(5.120000, 0.032400)">
                    <path d="M5.5696864,2.49376903 L3.2839904,0.170204335 C3.0608224,-0.0565634527 2.6990944,-0.0565634527 2.4759904,0.170204335 L0.1902624,2.49380156 C-0.0289696,2.72457056 -0.0226976,3.09229156 0.2043424,3.31518825 C0.4257824,3.53261988 0.7768544,3.53261988 0.9982944,3.31518825 L2.3085664,1.98317555 L2.3085664,9.87525406 C2.3085664,10.1960666 2.5644064,10.4561778 2.8800224,10.4561778 C3.1956384,10.4561778 3.4514464,10.196034 3.4514464,9.87525406 L3.4514464,1.98317555 L4.7617184,3.31518825 C4.8688544,3.42413178 5.0141664,3.48535355 5.1657184,3.48538608 C5.4813024,3.48532102 5.7370784,3.22517728 5.7370144,2.90439732 C5.7369824,2.75036698 5.6768224,2.60271256 5.5696864,2.49376903" id="Fill-3"></path>
                </g>
                <g id="Group-8" transform="translate(0.000000, 4.439807)">
                    <path d="M1.1428448,3.45983728 L1.1428448,1.58377385 L2.7759968,1.58377385 L3.9485728,1.58377385 L5.7143008,1.58377385 C6.0298848,1.58377385 6.2857248,1.28988077 6.2857248,0.927320744 C6.2857248,0.564797475 6.0298848,0.270904396 5.7143008,0.270904396 L0.5714528,0.270904396 C0.2558368,0.270941156 -3.1999989e-06,0.564834234 -3.1999989e-06,0.927320744 L-3.1999989e-06,12.7429253 C-3.1999989e-06,13.1054486 0.2558368,13.3993784 0.5714528,13.3993784 L15.4285728,13.3993784 C15.7441568,13.3993784 15.9999968,13.1054486 15.9999968,12.7429253 L15.9999968,0.927320744 C15.9999968,0.564834234 15.7441568,0.270941156 15.4285728,0.270941156 L10.2857248,0.270941156 C9.9701088,0.270941156 9.7142368,0.564834234 9.7142368,0.927357504 C9.7142368,1.28991753 9.9701088,1.58381061 10.2857248,1.58381061 L12.0514208,1.58381061 L13.2239648,1.58373709 L14.8571168,1.58373709 L14.8571168,3.45980052 L14.8571168,4.80685642 L14.8571168,8.71260169 L14.8571168,8.86349989 L14.8571168,10.2104823 L14.8571168,12.0865457 L13.2239648,12.0865457 L12.0514208,12.0865457 L3.9485728,12.0865457 L2.7759968,12.0865457 L1.1428448,12.0865457 L1.1428448,10.2104823 L1.1428768,8.86349989 L1.1428768,4.80681966 L1.1428448,3.45983728 Z" id="Fill-6"></path>
                </g>
            </g>
        </g>
    </g>
</svg>