<?xml version="1.0" encoding="UTF-8"?>
<svg width="19px" height="24px" viewBox="0 0 19 24" version="1.1" xmlns="http://www.w3.org/2000/svg" xmlns:xlink="http://www.w3.org/1999/xlink">
    <!-- Generator: Sketch 3.6 (26304) - http://www.bohemiancoding.com/sketch -->
    <title>Page 1</title>
    <desc>Created with Sketch.</desc>
    <defs>
        <path id="path-1" d="M0,22 L17,22 L17,0 L0,0 L0,22 Z"></path>
    </defs>
    <g id="Page-1" stroke="none" stroke-width="1" fill="none" fill-rule="evenodd">
        <g id="1.-Mis-Billeteras-1.1" transform="translate(-46.000000, -306.000000)">
            <g id="Page-1" transform="translate(47.000000, 307.000000)">
                <path d="M4.86979167,8.59375 C4.52802083,8.59375 4.25,8.86359375 4.25,9.1953125 L4.25,10.7421875 C4.25,11.0739492 4.52802083,11.34375 4.86979167,11.34375 L12.1302083,11.34375 C12.4719792,11.34375 12.75,11.0739492 12.75,10.7421875 L12.75,9.1953125 C12.75,8.86359375 12.4719792,8.59375 12.1302083,8.59375 L4.86979167,8.59375 L4.86979167,8.59375 Z M12.1302083,12.71875 L4.86979167,12.71875 C3.74690625,12.71875 2.83333333,11.8320469 2.83333333,10.7421875 L2.83333333,9.1953125 C2.83333333,8.10545313 3.74690625,7.21875 4.86979167,7.21875 L12.1302083,7.21875 C13.2530937,7.21875 14.1666667,8.10545313 14.1666667,9.1953125 L14.1666667,10.7421875 C14.1666667,11.8320469 13.2530937,12.71875 12.1302083,12.71875 L12.1302083,12.71875 Z" id="Fill-1" stroke="#F1F4F8" stroke-width="0.2" fill="#35445F"></path>
                <path d="M4.95921875,15.8125 C4.56804167,15.8125 4.25066406,15.5046719 4.25066406,15.125 C4.25066406,14.7453281 4.56755469,14.4375 4.95877604,14.4375 L4.95921875,14.4375 C5.35039583,14.4375 5.66755208,14.7453281 5.66755208,15.125 C5.66755208,15.5046719 5.35039583,15.8125 4.95921875,15.8125" id="Fill-3" stroke="#F1F4F8" stroke-width="0.2" fill="#35445F"></path>
                <path d="M8.50088542,15.8125 C8.10970833,15.8125 7.79233073,15.5046719 7.79233073,15.125 C7.79233073,14.7453281 8.10922135,14.4375 8.50044271,14.4375 L8.50088542,14.4375 C8.89201823,14.4375 9.20921875,14.7453281 9.20921875,15.125 C9.20921875,15.5046719 8.89201823,15.8125 8.50088542,15.8125" id="Fill-5" stroke="#F1F4F8" stroke-width="0.2" fill="#35445F"></path>
                <path d="M12.0425299,15.8125 C11.6513529,15.8125 11.3339753,15.5046719 11.3339753,15.125 C11.3339753,14.7453281 11.6508659,14.4375 12.0420872,14.4375 L12.0425299,14.4375 C12.4337513,14.4375 12.7508633,14.7453281 12.7508633,15.125 C12.7508633,15.5046719 12.4337513,15.8125 12.0425299,15.8125" id="Fill-7" stroke="#F1F4F8" stroke-width="0.2" fill="#35445F"></path>
                <path d="M4.95921875,18.5625 C4.56804167,18.5625 4.25066406,18.2546719 4.25066406,17.875 C4.25066406,17.4953281 4.56755469,17.1875 4.95877604,17.1875 L4.95921875,17.1875 C5.35039583,17.1875 5.66755208,17.4953281 5.66755208,17.875 C5.66755208,18.2546719 5.35039583,18.5625 4.95921875,18.5625" id="Fill-9" stroke="#F1F4F8" stroke-width="0.2" fill="#35445F"></path>
                <path d="M8.50088542,18.5625 C8.10970833,18.5625 7.79233073,18.2546719 7.79233073,17.875 C7.79233073,17.4953281 8.10922135,17.1875 8.50044271,17.1875 L8.50088542,17.1875 C8.89201823,17.1875 9.20921875,17.4953281 9.20921875,17.875 C9.20921875,18.2546719 8.89201823,18.5625 8.50088542,18.5625" id="Fill-11" stroke="#F1F4F8" stroke-width="0.2" fill="#35445F"></path>
                <path d="M12.0425299,18.5625 C11.6513529,18.5625 11.3339753,18.2546719 11.3339753,17.875 C11.3339753,17.4953281 11.6508659,17.1875 12.0420872,17.1875 L12.0425299,17.1875 C12.4337513,17.1875 12.7508633,17.4953281 12.7508633,17.875 C12.7508633,18.2546719 12.4337513,18.5625 12.0425299,18.5625" id="Fill-13" stroke="#F1F4F8" stroke-width="0.2" fill="#35445F"></path>
                <path d="M12.0416667,1.375 L14.078125,1.375 C14.9081146,1.375 15.5833333,2.03035938 15.5833333,2.8359375 L15.5833333,19.1640625 C15.5833333,19.9696406 14.9081146,20.625 14.078125,20.625 L2.921875,20.625 C2.09188542,20.625 1.41666667,19.9696406 1.41666667,19.1640625 L1.41666667,2.8359375 C1.41666667,2.03035938 2.09188542,1.375 2.921875,1.375 L4.95833333,1.375 M6.375,1.375 L10.625,1.375 M14.078125,0 L2.921875,0 C1.31072656,0 0,1.27217578 0,2.8359375 L0,19.1640625 C0,20.7278242 1.31072656,22 2.921875,22 L14.078125,22 C15.6892734,22 17,20.7278242 17,19.1640625 L17,2.8359375 C17,1.27217578 15.6892734,0 14.078125,0" id="Fill-15" stroke="#F1F4F8" stroke-width="0.2" fill="#35445F"></path>
                <mask id="mask-2" fill="white">
                    <use xlink:href="#path-1"></use>
                </mask>
                <use id="Clip-18" stroke="#F1F4F8" stroke-width="0.2" xlink:href="#path-1"></use>
                <path d="M3.56380208,4.70507812 L13.5247396,4.70507812 L13.5247396,3.33007812 L3.56380208,3.33007812 L3.56380208,4.70507812 Z" id="Fill-17" stroke="#F1F4F8" stroke-width="0.2" fill="#35445F" mask="url(#mask-2)"></path>
                <path d="M4.27213542,4.01757812 C4.27213542,4.39725 3.95497917,4.70507812 3.56380208,4.70507812 C3.172625,4.70507812 2.85546875,4.39725 2.85546875,4.01757812 C2.85546875,3.63790625 3.172625,3.33007812 3.56380208,3.33007812 C3.95497917,3.33007812 4.27213542,3.63790625 4.27213542,4.01757812" id="Fill-19" stroke="#F1F4F8" stroke-width="0.2" fill="#35445F" mask="url(#mask-2)"></path>
                <path d="M14.2330729,4.01757812 C14.2330729,4.39725 13.9159167,4.70507812 13.5247396,4.70507812 C13.1335625,4.70507812 12.8164062,4.39725 12.8164062,4.01757812 C12.8164062,3.63790625 13.1335625,3.33007812 13.5247396,3.33007812 C13.9159167,3.33007812 14.2330729,3.63790625 14.2330729,4.01757812" id="Fill-20" stroke="#F1F4F8" stroke-width="0.2" fill="#35445F" mask="url(#mask-2)"></path>
            </g>
        </g>
    </g>
</svg>