<?xml version="1.0" encoding="UTF-8"?>
<svg width="21px" height="23px" viewBox="0 0 21 23" version="1.1" xmlns="http://www.w3.org/2000/svg" xmlns:xlink="http://www.w3.org/1999/xlink">
    <!-- Generator: Sketch 3.6 (26304) - http://www.bohemiancoding.com/sketch -->
    <title>002-file</title>
    <desc>Created with Sketch.</desc>
    <defs></defs>
    <g id="Page-1" stroke="none" stroke-width="1" fill="none" fill-rule="evenodd">
        <g id="1.-Mis-Billeteras-Copy-3" transform="translate(-47.000000, -377.000000)" stroke-width="0.1" stroke="#35445F" fill="#35445F">
            <g id="002-file" transform="translate(48.000000, 378.000000)">
                <g id="Capa_1">
                    <g id="Group">
                        <path d="M14.6297926,6.98639648 C14.400714,6.98639648 14.2149454,6.80272852 14.2149454,6.57624023 L14.2149454,3.77163281 C14.2149454,3.54514453 14.400714,3.36147656 14.6297926,3.36147656 C14.8588712,3.36147656 15.0446397,3.54514453 15.0446397,3.77163281 L15.0446397,6.57624023 C15.0446397,6.80272852 14.8589127,6.98639648 14.6297926,6.98639648 L14.6297926,6.98639648 Z" id="Shape"></path>
                        <ellipse id="Oval" cx="14.6280087" cy="2.45183203" rx="0.414847162" ry="0.41015625"></ellipse>
                        <g id="Shape">
                            <path d="M18.9853974,4.30897852 C18.9853974,1.93298437 17.030679,0 14.6279672,0 C13.6334541,0 12.7157293,0.331160156 11.9815328,0.887824219 L1.5243559,0.887824219 C0.691882096,0.887824219 0.0146026201,1.5574043 0.0146026201,2.38050586 L0.0146026201,17.3008828 C0.0146026201,18.1239434 0.691882096,18.7936055 1.5243559,18.7936055 L2.84070742,18.7936055 L2.84070742,19.5072773 C2.84070742,20.3303379 3.5179869,21 4.3504607,21 L15.1970961,21 C16.0295699,21 16.7068493,20.3303789 16.7068493,19.5072773 L16.7068493,13.8183281 C16.7068493,13.5918398 16.5210808,13.4081719 16.2920022,13.4081719 C16.0629236,13.4081719 15.877155,13.5918398 15.877155,13.8183281 L15.877155,19.5072773 C15.877155,19.8780176 15.5720764,20.1796875 15.1970961,20.1796875 L4.3504607,20.1796875 C3.97548035,20.1796875 3.67040175,19.8780586 3.67040175,19.5072773 L3.67040175,18.7936055 L12.3710328,18.7936055 C13.2035066,18.7936055 13.8808275,18.1239844 13.8808275,17.3008828 L13.8808275,8.55454687 C14.123679,8.59621875 14.3732926,8.61795703 14.6280087,8.61795703 C15.0619803,8.61795703 15.4813493,8.554875 15.8771965,8.4375293 L15.8771965,10.1100645 C15.8771965,10.3365527 16.0629651,10.5202207 16.2920437,10.5202207 C16.5211223,10.5202207 16.7068908,10.3365527 16.7068908,10.1100645 L16.7068908,8.09517187 C18.0631092,7.36402734 18.9853974,5.94103125 18.9853974,4.30897852 L18.9853974,4.30897852 Z M13.0511332,17.3009238 C13.0511332,17.6716641 12.7460546,17.973334 12.3710328,17.973334 L1.5243559,17.973334 C1.14937555,17.973334 0.844296943,17.6717051 0.844296943,17.3009238 L0.844296943,2.38050586 C0.844296943,2.00976563 1.14937555,1.70813672 1.5243559,1.70813672 L11.1559039,1.70813672 C10.6351878,2.38624805 10.3126856,3.22091602 10.2744367,4.12699219 L3.20996288,4.12699219 C2.98088428,4.12699219 2.79511572,4.31066016 2.79511572,4.53714844 L2.79511572,6.26940234 C2.79511572,6.49589063 2.98088428,6.67955859 3.20996288,6.67955859 L10.6854258,6.67955859 C10.7797205,6.67955859 10.8666725,6.64842773 10.9363668,6.59600977 C11.4319432,7.3754707 12.1728603,7.98771094 13.0511332,8.32600781 L13.0511332,17.3009238 Z M10.2705786,4.94730469 L10.2705786,5.85924609 L3.62481004,5.85924609 L3.62481004,4.94730469 L10.2705786,4.94730469 Z M14.6279672,7.79760352 C12.6827904,7.79760352 11.1002729,6.23261133 11.1002729,4.3089375 C11.1002729,2.38530469 12.6827904,0.820271484 14.6279672,0.820271484 C16.5731856,0.820271484 18.1557031,2.38526367 18.1557031,4.3089375 C18.1557031,6.23261133 16.5731856,7.79760352 14.6279672,7.79760352 L14.6279672,7.79760352 Z"></path>
                            <path d="M16.2918777,12.3670312 C16.1209607,12.3670312 15.9642729,12.258873 15.9040371,12.101168 C15.8421834,11.9393203 15.8928362,11.7490078 16.0288646,11.6395371 C16.1651419,11.5299023 16.3613231,11.5167363 16.5107926,11.6084473 C16.6599716,11.6999941 16.736345,11.8805859 16.6959803,12.0499395 C16.6522969,12.2331152 16.4825,12.3670312 16.2918777,12.3670312 L16.2918777,12.3670312 Z"></path>
                        </g>
                        <g transform="translate(2.779476, 8.080078)" id="Shape">
                            <path d="M7.90594978,0.846275391 L0.4304869,0.846275391 C0.201408297,0.846275391 0.015639738,0.662648438 0.015639738,0.436119141 C0.015639738,0.209630859 0.201408297,0.0259628906 0.4304869,0.0259628906 L7.90594978,0.0259628906 C8.13502838,0.0259628906 8.32079694,0.209630859 8.32079694,0.436119141 C8.32079694,0.662607422 8.13506987,0.846275391 7.90594978,0.846275391 L7.90594978,0.846275391 Z"></path>
                            <path d="M7.90594978,2.79164648 L0.4304869,2.79164648 C0.201408297,2.79164648 0.015639738,2.60797852 0.015639738,2.38149023 C0.015639738,2.15496094 0.201408297,1.97133398 0.4304869,1.97133398 L7.90594978,1.97133398 C8.13502838,1.97133398 8.32079694,2.15496094 8.32079694,2.38149023 C8.32079694,2.60797852 8.13506987,2.79164648 7.90594978,2.79164648 L7.90594978,2.79164648 Z"></path>
                            <path d="M7.90594978,4.73701758 L0.4304869,4.73701758 C0.201408297,4.73701758 0.015639738,4.55334961 0.015639738,4.32686133 C0.015639738,4.10037305 0.201408297,3.91670508 0.4304869,3.91670508 L7.90594978,3.91670508 C8.13502838,3.91670508 8.32079694,4.10037305 8.32079694,4.32686133 C8.32079694,4.55339063 8.13506987,4.73701758 7.90594978,4.73701758 L7.90594978,4.73701758 Z"></path>
                            <path d="M7.90594978,6.68238867 L0.4304869,6.68238867 C0.201408297,6.68238867 0.015639738,6.4987207 0.015639738,6.27223242 C0.015639738,6.04570312 0.201408297,5.86207617 0.4304869,5.86207617 L7.90594978,5.86207617 C8.13502838,5.86207617 8.32079694,6.04570312 8.32079694,6.27223242 C8.32079694,6.4987207 8.13506987,6.68238867 7.90594978,6.68238867 L7.90594978,6.68238867 Z"></path>
                        </g>
                    </g>
                </g>
            </g>
        </g>
    </g>
</svg>